<svg width="1915" height="574" viewBox="0 0 1915 574" fill="none" xmlns="http://www.w3.org/2000/svg">
    <path d="M1 162.813C2 165.813 81 281.313 131 315.313C171 342.513 197.333 359.313 205.5 364.313C215.833 367.146 238.3 372.913 245.5 373.313C254.5 373.813 331.5 367.813 395.5 263.813C459.5 159.813 471 121.313 511.5 98.3129C543.9 79.9129 590 103.313 609 117.313L694.5 191.813C714.5 217.48 784.1 262.613 902.5 237.813C1050.5 206.813 1042 183.813 1228.5 121.313C1415 58.8129 1379.5 61.8129 1538 27.3129C1664.8 -0.287134 1780.83 -0.853801 1823 2.31287L1914 11.3129" stroke="url(#paint0_linear_6_13)"/>
    <path d="M1 182.813C2 185.813 81 301.313 131 335.313C171 362.513 197.333 379.313 205.5 384.313C215.833 387.146 238.3 392.913 245.5 393.313C254.5 393.813 331.5 387.813 395.5 283.813C459.5 179.813 471 141.313 511.5 118.313C543.9 99.9129 590 123.313 609 137.313L694.5 211.813C714.5 237.48 784.1 282.613 902.5 257.813C1050.5 226.813 1042 203.813 1228.5 141.313C1415 78.8129 1379.5 81.8129 1538 47.3129C1664.8 19.7129 1780.83 19.1462 1823 22.3129L1914 31.3129" stroke="url(#paint1_linear_6_13)"/>
    <path d="M1 202.813C2 205.813 81 321.313 131 355.313C171 382.513 197.333 399.313 205.5 404.313C215.833 407.146 238.3 412.913 245.5 413.313C254.5 413.813 331.5 407.813 395.5 303.813C459.5 199.813 471 161.313 511.5 138.313C543.9 119.913 590 143.313 609 157.313L694.5 231.813C714.5 257.48 784.1 302.613 902.5 277.813C1050.5 246.813 1042 223.813 1228.5 161.313C1415 98.8129 1379.5 101.813 1538 67.3129C1664.8 39.7129 1780.83 39.1462 1823 42.3129L1914 51.3129" stroke="url(#paint2_linear_6_13)"/>
    <path d="M1 222.813C2 225.813 81 341.313 131 375.313C171 402.513 197.333 419.313 205.5 424.313C215.833 427.146 238.3 432.913 245.5 433.313C254.5 433.813 331.5 427.813 395.5 323.813C459.5 219.813 471 181.313 511.5 158.313C543.9 139.913 590 163.313 609 177.313L694.5 251.813C714.5 277.48 784.1 322.613 902.5 297.813C1050.5 266.813 1042 243.813 1228.5 181.313C1415 118.813 1379.5 121.813 1538 87.3129C1664.8 59.7129 1780.83 59.1462 1823 62.3129L1914 71.3129" stroke="url(#paint3_linear_6_13)"/>
    <path d="M1 242.813C2 245.813 81 361.313 131 395.313C171 422.513 197.333 439.313 205.5 444.313C215.833 447.146 238.3 452.913 245.5 453.313C254.5 453.813 331.5 447.813 395.5 343.813C459.5 239.813 471 201.313 511.5 178.313C543.9 159.913 590 183.313 609 197.313L694.5 271.813C714.5 297.48 784.1 342.613 902.5 317.813C1050.5 286.813 1042 263.813 1228.5 201.313C1415 138.813 1379.5 141.813 1538 107.313C1664.8 79.7129 1780.83 79.1462 1823 82.3129L1914 91.3129" stroke="url(#paint4_linear_6_13)"/>
    <path d="M1 262.813C2 265.813 81 381.313 131 415.313C171 442.513 197.333 459.313 205.5 464.313C215.833 467.146 238.3 472.913 245.5 473.313C254.5 473.813 331.5 467.813 395.5 363.813C459.5 259.813 471 221.313 511.5 198.313C543.9 179.913 590 203.313 609 217.313L694.5 291.813C714.5 317.48 784.1 362.613 902.5 337.813C1050.5 306.813 1042 283.813 1228.5 221.313C1415 158.813 1379.5 161.813 1538 127.313C1664.8 99.7129 1780.83 99.1462 1823 102.313L1914 111.313" stroke="url(#paint5_linear_6_13)"/>
    <path d="M1 282.813C2 285.813 81 401.313 131 435.313C171 462.513 197.333 479.313 205.5 484.313C215.833 487.146 238.3 492.913 245.5 493.313C254.5 493.813 331.5 487.813 395.5 383.813C459.5 279.813 471 241.313 511.5 218.313C543.9 199.913 590 223.313 609 237.313L694.5 311.813C714.5 337.48 784.1 382.613 902.5 357.813C1050.5 326.813 1042 303.813 1228.5 241.313C1415 178.813 1379.5 181.813 1538 147.313C1664.8 119.713 1780.83 119.146 1823 122.313L1914 131.313" stroke="url(#paint6_linear_6_13)"/>
    <path d="M1 302.813C2 305.813 81 421.313 131 455.313C171 482.513 197.333 499.313 205.5 504.313C215.833 507.146 238.3 512.913 245.5 513.313C254.5 513.813 331.5 507.813 395.5 403.813C459.5 299.813 471 261.313 511.5 238.313C543.9 219.913 590 243.313 609 257.313L694.5 331.813C714.5 357.48 784.1 402.613 902.5 377.813C1050.5 346.813 1042 323.813 1228.5 261.313C1415 198.813 1379.5 201.813 1538 167.313C1664.8 139.713 1780.83 139.146 1823 142.313L1914 151.313" stroke="url(#paint7_linear_6_13)"/>
    <path d="M1 322.813C2 325.813 81 441.313 131 475.313C171 502.513 197.333 519.313 205.5 524.313C215.833 527.146 238.3 532.913 245.5 533.313C254.5 533.813 331.5 527.813 395.5 423.813C459.5 319.813 471 281.313 511.5 258.313C543.9 239.913 590 263.313 609 277.313L694.5 351.813C714.5 377.48 784.1 422.613 902.5 397.813C1050.5 366.813 1042 343.813 1228.5 281.313C1415 218.813 1379.5 221.813 1538 187.313C1664.8 159.713 1780.83 159.146 1823 162.313L1914 171.313" stroke="url(#paint8_linear_6_13)"/>
    <path d="M1 342.813C2 345.813 81 461.313 131 495.313C171 522.513 197.333 539.313 205.5 544.313C215.833 547.146 238.3 552.913 245.5 553.313C254.5 553.813 331.5 547.813 395.5 443.813C459.5 339.813 471 301.313 511.5 278.313C543.9 259.913 590 283.313 609 297.313L694.5 371.813C714.5 397.48 784.1 442.613 902.5 417.813C1050.5 386.813 1042 363.813 1228.5 301.313C1415 238.813 1379.5 241.813 1538 207.313C1664.8 179.713 1780.83 179.146 1823 182.313L1914 191.313" stroke="url(#paint9_linear_6_13)"/>
    <path d="M1 362.813C2 365.813 81 481.313 131 515.313C171 542.513 197.333 559.313 205.5 564.313C215.833 567.146 238.3 572.913 245.5 573.313C254.5 573.813 331.5 567.813 395.5 463.813C459.5 359.813 471 321.313 511.5 298.313C543.9 279.913 590 303.313 609 317.313L694.5 391.813C714.5 417.48 784.1 462.613 902.5 437.813C1050.5 406.813 1042 383.813 1228.5 321.313C1415 258.813 1379.5 261.813 1538 227.313C1664.8 199.713 1780.83 199.146 1823 202.313L1914 211.313" stroke="url(#paint10_linear_6_13)"/>
    <defs>
        <linearGradient id="paint0_linear_6_13" x1="1" y1="187.169" x2="1914" y2="187.169" gradientUnits="userSpaceOnUse">
            <stop stop-color="#4EC1AF"/>
            <stop offset="1" stop-color="#079BEE"/>
        </linearGradient>
        <linearGradient id="paint1_linear_6_13" x1="1" y1="207.169" x2="1914" y2="207.169" gradientUnits="userSpaceOnUse">
            <stop stop-color="#4EC1AF"/>
            <stop offset="1" stop-color="#079BEE"/>
        </linearGradient>
        <linearGradient id="paint2_linear_6_13" x1="1" y1="227.169" x2="1914" y2="227.169" gradientUnits="userSpaceOnUse">
            <stop stop-color="#4EC1AF"/>
            <stop offset="1" stop-color="#079BEE"/>
        </linearGradient>
        <linearGradient id="paint3_linear_6_13" x1="1" y1="247.169" x2="1914" y2="247.169" gradientUnits="userSpaceOnUse">
            <stop stop-color="#4EC1AF"/>
            <stop offset="1" stop-color="#079BEE"/>
        </linearGradient>
        <linearGradient id="paint4_linear_6_13" x1="1" y1="267.169" x2="1914" y2="267.169" gradientUnits="userSpaceOnUse">
            <stop stop-color="#4EC1AF"/>
            <stop offset="1" stop-color="#079BEE"/>
        </linearGradient>
        <linearGradient id="paint5_linear_6_13" x1="1" y1="287.169" x2="1914" y2="287.169" gradientUnits="userSpaceOnUse">
            <stop stop-color="#4EC1AF"/>
            <stop offset="1" stop-color="#079BEE"/>
        </linearGradient>
        <linearGradient id="paint6_linear_6_13" x1="1" y1="307.169" x2="1914" y2="307.169" gradientUnits="userSpaceOnUse">
            <stop stop-color="#4EC1AF"/>
            <stop offset="1" stop-color="#079BEE"/>
        </linearGradient>
        <linearGradient id="paint7_linear_6_13" x1="1" y1="327.169" x2="1914" y2="327.169" gradientUnits="userSpaceOnUse">
            <stop stop-color="#4EC1AF"/>
            <stop offset="1" stop-color="#079BEE"/>
        </linearGradient>
        <linearGradient id="paint8_linear_6_13" x1="1" y1="347.169" x2="1914" y2="347.169" gradientUnits="userSpaceOnUse">
            <stop stop-color="#4EC1AF"/>
            <stop offset="1" stop-color="#079BEE"/>
        </linearGradient>
        <linearGradient id="paint9_linear_6_13" x1="1" y1="367.169" x2="1914" y2="367.169" gradientUnits="userSpaceOnUse">
            <stop stop-color="#4EC1AF"/>
            <stop offset="1" stop-color="#079BEE"/>
        </linearGradient>
        <linearGradient id="paint10_linear_6_13" x1="1" y1="387.169" x2="1914" y2="387.169" gradientUnits="userSpaceOnUse">
            <stop stop-color="#4EC1AF"/>
            <stop offset="1" stop-color="#079BEE"/>
        </linearGradient>
    </defs>
</svg>
