<svg width="1916" height="578" viewBox="0 0 1916 578" fill="none" xmlns="http://www.w3.org/2000/svg">
    <path d="M1 418.93L7.5017 421.464L25.5064 431.092L48.0123 447.814L68.0175 465.043L88.0227 482.779C93.8576 488.184 105.727 499.096 106.528 499.501C107.328 499.907 124.866 512.17 133.535 518.251L156.04 529.399C161.542 530.75 172.845 533.554 174.045 533.96C175.245 534.365 189.216 536.155 196.051 537L219.057 533.96L242.063 527.879L259.067 521.291L286.074 507.102L303.579 492.407L317.083 476.191C321.584 469.435 330.786 455.719 331.586 454.908C332.387 454.098 341.922 438.693 346.59 431.092C352.092 421.97 363.195 403.525 363.595 402.714C364.095 401.701 381.099 379.404 382.6 377.884C384.1 376.364 390.602 368.763 393.102 366.229C395.603 363.695 400.104 359.642 403.605 358.121C407.106 356.601 410.107 353.561 414.108 350.52C418.109 347.48 413.608 350.013 427.111 342.919C437.914 337.244 445.616 335.149 448.117 334.811L458.119 332.278L477.624 326.704L496.129 323.663C502.798 323.663 516.535 323.663 518.135 323.663C520.136 323.663 539.141 322.143 543.142 321.636C546.342 321.231 556.812 321.467 561.646 321.636L597.656 325.183L633.665 330.251C644.168 333.122 665.974 339.068 669.174 339.879C673.176 340.892 693.681 348.493 695.181 349C696.382 349.405 710.018 353.898 716.687 356.094C726.856 359.473 748.195 366.533 752.196 367.749C757.197 369.27 779.203 375.857 785.205 377.377C791.206 378.898 800.209 380.418 804.71 380.925C809.211 381.431 815.713 382.445 820.214 382.445C824.715 382.445 843.72 382.445 844.72 382.445C845.521 382.445 856.057 380.08 861.225 378.898L871.727 374.844C878.229 372.479 891.833 367.648 894.233 367.243C897.234 366.736 912.238 359.135 914.238 357.615C915.839 356.398 925.908 352.04 930.743 350.013C937.745 346.466 952.248 338.967 954.249 337.345C956.75 335.318 978.255 323.156 980.256 322.143C981.856 321.332 1071.61 271.131 1116.29 246.132L1167.8 221.809C1182.81 215.39 1213.12 202.35 1214.32 201.539C1215.52 200.728 1233.16 193.431 1241.82 189.884C1256.66 184.31 1286.74 173.06 1288.34 172.655C1289.94 172.25 1308.34 166.405 1317.34 163.534L1337.35 161L1394.36 163.534L1434.87 170.121L1525.4 186.337C1543.74 190.56 1581.61 199.512 1586.41 201.539C1591.22 203.566 1622.76 215.897 1637.93 221.809L1686.44 245.625L1723.45 271.469L1771.46 304.914L1813.97 328.73L1855.48 346.466L1888.49 354.574H1916" stroke="url(#paint0_linear_6_25)"/>
    <path d="M1 398.93L7.5017 401.464L25.5064 411.092L48.0123 427.814L68.0175 445.043L88.0227 462.779C93.8576 468.184 105.727 479.096 106.528 479.501C107.328 479.907 124.866 492.17 133.535 498.251L156.04 509.399C161.542 510.75 172.845 513.554 174.045 513.96C175.245 514.365 189.216 516.155 196.051 517L219.057 513.96L242.063 507.879L259.067 501.291L286.074 487.102L303.579 472.407L317.083 456.191C321.584 449.435 330.786 435.719 331.586 434.908C332.387 434.098 341.922 418.693 346.59 411.092C352.092 401.97 363.195 383.525 363.595 382.714C364.095 381.701 381.099 359.404 382.6 357.884C384.1 356.364 390.602 348.763 393.102 346.229C395.603 343.695 400.104 339.642 403.605 338.121C407.106 336.601 410.107 333.561 414.108 330.52C418.109 327.48 413.608 330.013 427.111 322.919C437.914 317.244 445.616 315.149 448.117 314.811L458.119 312.278L477.624 306.704L496.129 303.663C502.798 303.663 516.535 303.663 518.135 303.663C520.136 303.663 539.141 302.143 543.142 301.636C546.342 301.231 556.812 301.467 561.646 301.636L597.656 305.183L633.665 310.251C644.168 313.122 665.974 319.068 669.174 319.879C673.176 320.892 693.681 328.493 695.181 329C696.382 329.405 710.018 333.898 716.687 336.094C726.856 339.473 748.195 346.533 752.196 347.749C757.197 349.27 779.203 355.857 785.205 357.377C791.206 358.898 800.209 360.418 804.71 360.925C809.211 361.431 815.713 362.445 820.214 362.445C824.715 362.445 843.72 362.445 844.72 362.445C845.521 362.445 856.057 360.08 861.225 358.898L871.727 354.844C878.229 352.479 891.833 347.648 894.233 347.243C897.234 346.736 912.238 339.135 914.238 337.615C915.839 336.398 925.908 332.04 930.743 330.013C937.745 326.466 952.248 318.967 954.249 317.345C956.75 315.318 978.255 303.156 980.256 302.143C981.856 301.332 1071.61 251.131 1116.29 226.132L1167.8 201.809C1182.81 195.39 1213.12 182.35 1214.32 181.539C1215.52 180.728 1233.16 173.431 1241.82 169.884C1256.66 164.31 1286.74 153.06 1288.34 152.655C1289.94 152.25 1308.34 146.405 1317.34 143.534L1337.35 141L1394.36 143.534L1434.87 150.121L1525.4 166.337C1543.74 170.56 1581.61 179.512 1586.41 181.539C1591.22 183.566 1622.76 195.897 1637.93 201.809L1686.44 225.625L1723.45 251.469L1771.46 284.914L1813.97 308.73L1855.48 326.466L1888.49 334.574H1916" stroke="url(#paint1_linear_6_25)"/>
    <path d="M1 378.93L7.5017 381.464L25.5064 391.092L48.0123 407.814L68.0175 425.043L88.0227 442.779C93.8576 448.184 105.727 459.096 106.528 459.501C107.328 459.907 124.866 472.17 133.535 478.251L156.04 489.399C161.542 490.75 172.845 493.554 174.045 493.96C175.245 494.365 189.216 496.155 196.051 497L219.057 493.96L242.063 487.879L259.067 481.291L286.074 467.102L303.579 452.407L317.083 436.191C321.584 429.435 330.786 415.719 331.586 414.908C332.387 414.098 341.922 398.693 346.59 391.092C352.092 381.97 363.195 363.525 363.595 362.714C364.095 361.701 381.099 339.404 382.6 337.884C384.1 336.364 390.602 328.763 393.102 326.229C395.603 323.695 400.104 319.642 403.605 318.121C407.106 316.601 410.107 313.561 414.108 310.52C418.109 307.48 413.608 310.013 427.111 302.919C437.914 297.244 445.616 295.149 448.117 294.811L458.119 292.278L477.624 286.704L496.129 283.663C502.798 283.663 516.535 283.663 518.135 283.663C520.136 283.663 539.141 282.143 543.142 281.636C546.342 281.231 556.812 281.467 561.646 281.636L597.656 285.183L633.665 290.251C644.168 293.122 665.974 299.068 669.174 299.879C673.176 300.892 693.681 308.493 695.181 309C696.382 309.405 710.018 313.898 716.687 316.094C726.856 319.473 748.195 326.533 752.196 327.749C757.197 329.27 779.203 335.857 785.205 337.377C791.206 338.898 800.209 340.418 804.71 340.925C809.211 341.431 815.713 342.445 820.214 342.445C824.715 342.445 843.72 342.445 844.72 342.445C845.521 342.445 856.057 340.08 861.225 338.898L871.727 334.844C878.229 332.479 891.833 327.648 894.233 327.243C897.234 326.736 912.238 319.135 914.238 317.615C915.839 316.398 925.908 312.04 930.743 310.013C937.745 306.466 952.248 298.967 954.249 297.345C956.75 295.318 978.255 283.156 980.256 282.143C981.856 281.332 1071.61 231.131 1116.29 206.132L1167.8 181.809C1182.81 175.39 1213.12 162.35 1214.32 161.539C1215.52 160.728 1233.16 153.431 1241.82 149.884C1256.66 144.31 1286.74 133.06 1288.34 132.655C1289.94 132.25 1308.34 126.405 1317.34 123.534L1337.35 121L1394.36 123.534L1434.87 130.121L1525.4 146.337C1543.74 150.56 1581.61 159.512 1586.41 161.539C1591.22 163.566 1622.76 175.897 1637.93 181.809L1686.44 205.625L1723.45 231.469L1771.46 264.914L1813.97 288.73L1855.48 306.466L1888.49 314.574H1916" stroke="url(#paint2_linear_6_25)"/>
    <path d="M1 358.93L7.5017 361.464L25.5064 371.092L48.0123 387.814L68.0175 405.043L88.0227 422.779C93.8576 428.184 105.727 439.096 106.528 439.501C107.328 439.907 124.866 452.17 133.535 458.251L156.04 469.399C161.542 470.75 172.845 473.554 174.045 473.96C175.245 474.365 189.216 476.155 196.051 477L219.057 473.96L242.063 467.879L259.067 461.291L286.074 447.102L303.579 432.407L317.083 416.191C321.584 409.435 330.786 395.719 331.586 394.908C332.387 394.098 341.922 378.693 346.59 371.092C352.092 361.97 363.195 343.525 363.595 342.714C364.095 341.701 381.099 319.404 382.6 317.884C384.1 316.364 390.602 308.763 393.102 306.229C395.603 303.695 400.104 299.642 403.605 298.121C407.106 296.601 410.107 293.561 414.108 290.52C418.109 287.48 413.608 290.013 427.111 282.919C437.914 277.244 445.616 275.149 448.117 274.811L458.119 272.278L477.624 266.704L496.129 263.663C502.798 263.663 516.535 263.663 518.135 263.663C520.136 263.663 539.141 262.143 543.142 261.636C546.342 261.231 556.812 261.467 561.646 261.636L597.656 265.183L633.665 270.251C644.168 273.122 665.974 279.068 669.174 279.879C673.176 280.892 693.681 288.493 695.181 289C696.382 289.405 710.018 293.898 716.687 296.094C726.856 299.473 748.195 306.533 752.196 307.749C757.197 309.27 779.203 315.857 785.205 317.377C791.206 318.898 800.209 320.418 804.71 320.925C809.211 321.431 815.713 322.445 820.214 322.445C824.715 322.445 843.72 322.445 844.72 322.445C845.521 322.445 856.057 320.08 861.225 318.898L871.727 314.844C878.229 312.479 891.833 307.648 894.233 307.243C897.234 306.736 912.238 299.135 914.238 297.615C915.839 296.398 925.908 292.04 930.743 290.013C937.745 286.466 952.248 278.967 954.249 277.345C956.75 275.318 978.255 263.156 980.256 262.143C981.856 261.332 1071.61 211.131 1116.29 186.132L1167.8 161.809C1182.81 155.39 1213.12 142.35 1214.32 141.539C1215.52 140.728 1233.16 133.431 1241.82 129.884C1256.66 124.31 1286.74 113.06 1288.34 112.655C1289.94 112.25 1308.34 106.405 1317.34 103.534L1337.35 101L1394.36 103.534L1434.87 110.121L1525.4 126.337C1543.74 130.56 1581.61 139.512 1586.41 141.539C1591.22 143.566 1622.76 155.897 1637.93 161.809L1686.44 185.625L1723.45 211.469L1771.46 244.914L1813.97 268.73L1855.48 286.466L1888.49 294.574H1916" stroke="url(#paint3_linear_6_25)"/>
    <path d="M1 338.93L7.5017 341.464L25.5064 351.092L48.0123 367.814L68.0175 385.043L88.0227 402.779C93.8576 408.184 105.727 419.096 106.528 419.501C107.328 419.907 124.866 432.17 133.535 438.251L156.04 449.399C161.542 450.75 172.845 453.554 174.045 453.96C175.245 454.365 189.216 456.155 196.051 457L219.057 453.96L242.063 447.879L259.067 441.291L286.074 427.102L303.579 412.407L317.083 396.191C321.584 389.435 330.786 375.719 331.586 374.908C332.387 374.098 341.922 358.693 346.59 351.092C352.092 341.97 363.195 323.525 363.595 322.714C364.095 321.701 381.099 299.404 382.6 297.884C384.1 296.364 390.602 288.763 393.102 286.229C395.603 283.695 400.104 279.642 403.605 278.121C407.106 276.601 410.107 273.561 414.108 270.52C418.109 267.48 413.608 270.013 427.111 262.919C437.914 257.244 445.616 255.149 448.117 254.811L458.119 252.278L477.624 246.704L496.129 243.663C502.798 243.663 516.535 243.663 518.135 243.663C520.136 243.663 539.141 242.143 543.142 241.636C546.342 241.231 556.812 241.467 561.646 241.636L597.656 245.183L633.665 250.251C644.168 253.122 665.974 259.068 669.174 259.879C673.176 260.892 693.681 268.493 695.181 269C696.382 269.405 710.018 273.898 716.687 276.094C726.856 279.473 748.195 286.533 752.196 287.749C757.197 289.27 779.203 295.857 785.205 297.377C791.206 298.898 800.209 300.418 804.71 300.925C809.211 301.431 815.713 302.445 820.214 302.445C824.715 302.445 843.72 302.445 844.72 302.445C845.521 302.445 856.057 300.08 861.225 298.898L871.727 294.844C878.229 292.479 891.833 287.648 894.233 287.243C897.234 286.736 912.238 279.135 914.238 277.615C915.839 276.398 925.908 272.04 930.743 270.013C937.745 266.466 952.248 258.967 954.249 257.345C956.75 255.318 978.255 243.156 980.256 242.143C981.856 241.332 1071.61 191.131 1116.29 166.132L1167.8 141.809C1182.81 135.39 1213.12 122.35 1214.32 121.539C1215.52 120.728 1233.16 113.431 1241.82 109.884C1256.66 104.31 1286.74 93.0604 1288.34 92.655C1289.94 92.2496 1308.34 86.4052 1317.34 83.5337L1337.35 81L1394.36 83.5337L1434.87 90.1213L1525.4 106.337C1543.74 110.56 1581.61 119.512 1586.41 121.539C1591.22 123.566 1622.76 135.897 1637.93 141.809L1686.44 165.625L1723.45 191.469L1771.46 224.914L1813.97 248.73L1855.48 266.466L1888.49 274.574H1916" stroke="url(#paint4_linear_6_25)"/>
    <path d="M1 318.93L7.5017 321.464L25.5064 331.092L48.0123 347.814L68.0175 365.043L88.0227 382.779C93.8576 388.184 105.727 399.096 106.528 399.501C107.328 399.907 124.866 412.17 133.535 418.251L156.04 429.399C161.542 430.75 172.845 433.554 174.045 433.96C175.245 434.365 189.216 436.155 196.051 437L219.057 433.96L242.063 427.879L259.067 421.291L286.074 407.102L303.579 392.407L317.083 376.191C321.584 369.435 330.786 355.719 331.586 354.908C332.387 354.098 341.922 338.693 346.59 331.092C352.092 321.97 363.195 303.525 363.595 302.714C364.095 301.701 381.099 279.404 382.6 277.884C384.1 276.364 390.602 268.763 393.102 266.229C395.603 263.695 400.104 259.642 403.605 258.121C407.106 256.601 410.107 253.561 414.108 250.52C418.109 247.48 413.608 250.013 427.111 242.919C437.914 237.244 445.616 235.149 448.117 234.811L458.119 232.278L477.624 226.704L496.129 223.663C502.798 223.663 516.535 223.663 518.135 223.663C520.136 223.663 539.141 222.143 543.142 221.636C546.342 221.231 556.812 221.467 561.646 221.636L597.656 225.183L633.665 230.251C644.168 233.122 665.974 239.068 669.174 239.879C673.176 240.892 693.681 248.493 695.181 249C696.382 249.405 710.018 253.898 716.687 256.094C726.856 259.473 748.195 266.533 752.196 267.749C757.197 269.27 779.203 275.857 785.205 277.377C791.206 278.898 800.209 280.418 804.71 280.925C809.211 281.431 815.713 282.445 820.214 282.445C824.715 282.445 843.72 282.445 844.72 282.445C845.521 282.445 856.057 280.08 861.225 278.898L871.727 274.844C878.229 272.479 891.833 267.648 894.233 267.243C897.234 266.736 912.238 259.135 914.238 257.615C915.839 256.398 925.908 252.04 930.743 250.013C937.745 246.466 952.248 238.967 954.249 237.345C956.75 235.318 978.255 223.156 980.256 222.143C981.856 221.332 1071.61 171.131 1116.29 146.132L1167.8 121.809C1182.81 115.39 1213.12 102.35 1214.32 101.539C1215.52 100.728 1233.16 93.4313 1241.82 89.8841C1256.66 84.31 1286.74 73.0604 1288.34 72.655C1289.94 72.2496 1308.34 66.4052 1317.34 63.5337L1337.35 61L1394.36 63.5337L1434.87 70.1213L1525.4 86.3369C1543.74 90.5597 1581.61 99.5121 1586.41 101.539C1591.22 103.566 1622.76 115.897 1637.93 121.809L1686.44 145.625L1723.45 171.469L1771.46 204.914L1813.97 228.73L1855.48 246.466L1888.49 254.574H1916" stroke="url(#paint5_linear_6_25)"/>
    <path d="M1 298.93L7.5017 301.464L25.5064 311.092L48.0123 327.814L68.0175 345.043L88.0227 362.779C93.8576 368.184 105.727 379.096 106.528 379.501C107.328 379.907 124.866 392.17 133.535 398.251L156.04 409.399C161.542 410.75 172.845 413.554 174.045 413.96C175.245 414.365 189.216 416.155 196.051 417L219.057 413.96L242.063 407.879L259.067 401.291L286.074 387.102L303.579 372.407L317.083 356.191C321.584 349.435 330.786 335.719 331.586 334.908C332.387 334.098 341.922 318.693 346.59 311.092C352.092 301.97 363.195 283.525 363.595 282.714C364.095 281.701 381.099 259.404 382.6 257.884C384.1 256.364 390.602 248.763 393.102 246.229C395.603 243.695 400.104 239.642 403.605 238.121C407.106 236.601 410.107 233.561 414.108 230.52C418.109 227.48 413.608 230.013 427.111 222.919C437.914 217.244 445.616 215.149 448.117 214.811L458.119 212.278L477.624 206.704L496.129 203.663C502.798 203.663 516.535 203.663 518.135 203.663C520.136 203.663 539.141 202.143 543.142 201.636C546.342 201.231 556.812 201.467 561.646 201.636L597.656 205.183L633.665 210.251C644.168 213.122 665.974 219.068 669.174 219.879C673.176 220.892 693.681 228.493 695.181 229C696.382 229.405 710.018 233.898 716.687 236.094C726.856 239.473 748.195 246.533 752.196 247.749C757.197 249.27 779.203 255.857 785.205 257.377C791.206 258.898 800.209 260.418 804.71 260.925C809.211 261.431 815.713 262.445 820.214 262.445C824.715 262.445 843.72 262.445 844.72 262.445C845.521 262.445 856.057 260.08 861.225 258.898L871.727 254.844C878.229 252.479 891.833 247.648 894.233 247.243C897.234 246.736 912.238 239.135 914.238 237.615C915.839 236.398 925.908 232.04 930.743 230.013C937.745 226.466 952.248 218.967 954.249 217.345C956.75 215.318 978.255 203.156 980.256 202.143C981.856 201.332 1071.61 151.131 1116.29 126.132L1167.8 101.809C1182.81 95.3899 1213.12 82.3499 1214.32 81.5391C1215.52 80.7283 1233.16 73.4313 1241.82 69.8841C1256.66 64.31 1286.74 53.0604 1288.34 52.655C1289.94 52.2496 1308.34 46.4052 1317.34 43.5337L1337.35 41L1394.36 43.5337L1434.87 50.1213L1525.4 66.3369C1543.74 70.5597 1581.61 79.5121 1586.41 81.5391C1591.22 83.566 1622.76 95.8967 1637.93 101.809L1686.44 125.625L1723.45 151.469L1771.46 184.914L1813.97 208.73L1855.48 226.466L1888.49 234.574H1916" stroke="url(#paint6_linear_6_25)"/>
    <path d="M1 278.93L7.5017 281.464L25.5064 291.092L48.0123 307.814L68.0175 325.043L88.0227 342.779C93.8576 348.184 105.727 359.096 106.528 359.501C107.328 359.907 124.866 372.17 133.535 378.251L156.04 389.399C161.542 390.75 172.845 393.554 174.045 393.96C175.245 394.365 189.216 396.155 196.051 397L219.057 393.96L242.063 387.879L259.067 381.291L286.074 367.102L303.579 352.407L317.083 336.191C321.584 329.435 330.786 315.719 331.586 314.908C332.387 314.098 341.922 298.693 346.59 291.092C352.092 281.97 363.195 263.525 363.595 262.714C364.095 261.701 381.099 239.404 382.6 237.884C384.1 236.364 390.602 228.763 393.102 226.229C395.603 223.695 400.104 219.642 403.605 218.121C407.106 216.601 410.107 213.561 414.108 210.52C418.109 207.48 413.608 210.013 427.111 202.919C437.914 197.244 445.616 195.149 448.117 194.811L458.119 192.278L477.624 186.704L496.129 183.663C502.798 183.663 516.535 183.663 518.135 183.663C520.136 183.663 539.141 182.143 543.142 181.636C546.342 181.231 556.812 181.467 561.646 181.636L597.656 185.183L633.665 190.251C644.168 193.122 665.974 199.068 669.174 199.879C673.176 200.892 693.681 208.493 695.181 209C696.382 209.405 710.018 213.898 716.687 216.094C726.856 219.473 748.195 226.533 752.196 227.749C757.197 229.27 779.203 235.857 785.205 237.377C791.206 238.898 800.209 240.418 804.71 240.925C809.211 241.431 815.713 242.445 820.214 242.445C824.715 242.445 843.72 242.445 844.72 242.445C845.521 242.445 856.057 240.08 861.225 238.898L871.727 234.844C878.229 232.479 891.833 227.648 894.233 227.243C897.234 226.736 912.238 219.135 914.238 217.615C915.839 216.398 925.908 212.04 930.743 210.013C937.745 206.466 952.248 198.967 954.249 197.345C956.75 195.318 978.255 183.156 980.256 182.143C981.856 181.332 1071.61 131.131 1116.29 106.132L1167.8 81.8086C1182.81 75.3899 1213.12 62.3499 1214.32 61.5391C1215.52 60.7283 1233.16 53.4313 1241.82 49.8841C1256.66 44.31 1286.74 33.0604 1288.34 32.655C1289.94 32.2496 1308.34 26.4052 1317.34 23.5337L1337.35 21L1394.36 23.5337L1434.87 30.1213L1525.4 46.3369C1543.74 50.5597 1581.61 59.5121 1586.41 61.5391C1591.22 63.566 1622.76 75.8967 1637.93 81.8086L1686.44 105.625L1723.45 131.469L1771.46 164.914L1813.97 188.73L1855.48 206.466L1888.49 214.574H1916" stroke="url(#paint7_linear_6_25)"/>
    <path d="M1 258.93L7.5017 261.464L25.5064 271.092L48.0123 287.814L68.0175 305.043L88.0227 322.779C93.8576 328.184 105.727 339.096 106.528 339.501C107.328 339.907 124.866 352.17 133.535 358.251L156.04 369.399C161.542 370.75 172.845 373.554 174.045 373.96C175.245 374.365 189.216 376.155 196.051 377L219.057 373.96L242.063 367.879L259.067 361.291L286.074 347.102L303.579 332.407L317.083 316.191C321.584 309.435 330.786 295.719 331.586 294.908C332.387 294.098 341.922 278.693 346.59 271.092C352.092 261.97 363.195 243.525 363.595 242.714C364.095 241.701 381.099 219.404 382.6 217.884C384.1 216.364 390.602 208.763 393.102 206.229C395.603 203.695 400.104 199.642 403.605 198.121C407.106 196.601 410.107 193.561 414.108 190.52C418.109 187.48 413.608 190.013 427.111 182.919C437.914 177.244 445.616 175.149 448.117 174.811L458.119 172.278L477.624 166.704L496.129 163.663C502.798 163.663 516.535 163.663 518.135 163.663C520.136 163.663 539.141 162.143 543.142 161.636C546.342 161.231 556.812 161.467 561.646 161.636L597.656 165.183L633.665 170.251C644.168 173.122 665.974 179.068 669.174 179.879C673.176 180.892 693.681 188.493 695.181 189C696.382 189.405 710.018 193.898 716.687 196.094C726.856 199.473 748.195 206.533 752.196 207.749C757.197 209.27 779.203 215.857 785.205 217.377C791.206 218.898 800.209 220.418 804.71 220.925C809.211 221.431 815.713 222.445 820.214 222.445C824.715 222.445 843.72 222.445 844.72 222.445C845.521 222.445 856.057 220.08 861.225 218.898L871.727 214.844C878.229 212.479 891.833 207.648 894.233 207.243C897.234 206.736 912.238 199.135 914.238 197.615C915.839 196.398 925.908 192.04 930.743 190.013C937.745 186.466 952.248 178.967 954.249 177.345C956.75 175.318 978.255 163.156 980.256 162.143C981.856 161.332 1071.61 111.131 1116.29 86.1321L1167.8 61.8086C1182.81 55.3899 1213.12 42.3499 1214.32 41.5391C1215.52 40.7283 1233.16 33.4313 1241.82 29.8841C1256.66 24.31 1286.74 13.0604 1288.34 12.655C1289.94 12.2496 1308.34 6.40521 1317.34 3.53369L1337.35 1L1394.36 3.53369L1434.87 10.1213L1525.4 26.3369C1543.74 30.5597 1581.61 39.5121 1586.41 41.5391C1591.22 43.566 1622.76 55.8967 1637.93 61.8086L1686.44 85.6253L1723.45 111.469L1771.46 144.914L1813.97 168.73L1855.48 186.466L1888.49 194.574H1916" stroke="url(#paint8_linear_6_25)"/>
    <path d="M1 458.93L7.5017 461.464L25.5064 471.092L48.0123 487.814L68.0175 505.043L88.0227 522.779C93.8576 528.184 105.727 539.096 106.528 539.501C107.328 539.907 124.866 552.17 133.535 558.251L156.04 569.399C161.542 570.75 172.845 573.554 174.045 573.96C175.245 574.365 189.216 576.155 196.051 577L219.057 573.96L242.063 567.879L259.067 561.291L286.074 547.102L303.579 532.407L317.083 516.191C321.584 509.435 330.786 495.719 331.586 494.908C332.387 494.098 341.922 478.693 346.59 471.092C352.092 461.97 363.195 443.525 363.595 442.714C364.095 441.701 381.099 419.404 382.6 417.884C384.1 416.364 390.602 408.763 393.102 406.229C395.603 403.695 400.104 399.642 403.605 398.121C407.106 396.601 410.107 393.561 414.108 390.52C418.109 387.48 413.608 390.013 427.111 382.919C437.914 377.244 445.616 375.149 448.117 374.811L458.119 372.278L477.624 366.704L496.129 363.663C502.798 363.663 516.535 363.663 518.135 363.663C520.136 363.663 539.141 362.143 543.142 361.636C546.342 361.231 556.812 361.467 561.646 361.636L597.656 365.183L633.665 370.251C644.168 373.122 665.974 379.068 669.174 379.879C673.176 380.892 693.681 388.493 695.181 389C696.382 389.405 710.018 393.898 716.687 396.094C726.856 399.473 748.195 406.533 752.196 407.749C757.197 409.27 779.203 415.857 785.205 417.377C791.206 418.898 800.209 420.418 804.71 420.925C809.211 421.431 815.713 422.445 820.214 422.445C824.715 422.445 843.72 422.445 844.72 422.445C845.521 422.445 856.057 420.08 861.225 418.898L871.727 414.844C878.229 412.479 891.833 407.648 894.233 407.243C897.234 406.736 912.238 399.135 914.238 397.615C915.839 396.398 925.908 392.04 930.743 390.013C937.745 386.466 952.248 378.967 954.249 377.345C956.75 375.318 978.255 363.156 980.256 362.143C981.856 361.332 1071.61 311.131 1116.29 286.132L1167.8 261.809C1182.81 255.39 1213.12 242.35 1214.32 241.539C1215.52 240.728 1233.16 233.431 1241.82 229.884C1256.66 224.31 1286.74 213.06 1288.34 212.655C1289.94 212.25 1308.34 206.405 1317.34 203.534L1337.35 201L1394.36 203.534L1434.87 210.121L1525.4 226.337C1543.74 230.56 1581.61 239.512 1586.41 241.539C1591.22 243.566 1622.76 255.897 1637.93 261.809L1686.44 285.625L1723.45 311.469L1771.46 344.914L1813.97 368.73L1855.48 386.466L1888.49 394.574H1916" stroke="url(#paint9_linear_6_25)"/>
    <path d="M1 438.93L7.5017 441.464L25.5064 451.092L48.0123 467.814L68.0175 485.043L88.0227 502.779C93.8576 508.184 105.727 519.096 106.528 519.501C107.328 519.907 124.866 532.17 133.535 538.251L156.04 549.399C161.542 550.75 172.845 553.554 174.045 553.96C175.245 554.365 189.216 556.155 196.051 557L219.057 553.96L242.063 547.879L259.067 541.291L286.074 527.102L303.579 512.407L317.083 496.191C321.584 489.435 330.786 475.719 331.586 474.908C332.387 474.098 341.922 458.693 346.59 451.092C352.092 441.97 363.195 423.525 363.595 422.714C364.095 421.701 381.099 399.404 382.6 397.884C384.1 396.364 390.602 388.763 393.102 386.229C395.603 383.695 400.104 379.642 403.605 378.121C407.106 376.601 410.107 373.561 414.108 370.52C418.109 367.48 413.608 370.013 427.111 362.919C437.914 357.244 445.616 355.149 448.117 354.811L458.119 352.278L477.624 346.704L496.129 343.663C502.798 343.663 516.535 343.663 518.135 343.663C520.136 343.663 539.141 342.143 543.142 341.636C546.342 341.231 556.812 341.467 561.646 341.636L597.656 345.183L633.665 350.251C644.168 353.122 665.974 359.068 669.174 359.879C673.176 360.892 693.681 368.493 695.181 369C696.382 369.405 710.018 373.898 716.687 376.094C726.856 379.473 748.195 386.533 752.196 387.749C757.197 389.27 779.203 395.857 785.205 397.377C791.206 398.898 800.209 400.418 804.71 400.925C809.211 401.431 815.713 402.445 820.214 402.445C824.715 402.445 843.72 402.445 844.72 402.445C845.521 402.445 856.057 400.08 861.225 398.898L871.727 394.844C878.229 392.479 891.833 387.648 894.233 387.243C897.234 386.736 912.238 379.135 914.238 377.615C915.839 376.398 925.908 372.04 930.743 370.013C937.745 366.466 952.248 358.967 954.249 357.345C956.75 355.318 978.255 343.156 980.256 342.143C981.856 341.332 1071.61 291.131 1116.29 266.132L1167.8 241.809C1182.81 235.39 1213.12 222.35 1214.32 221.539C1215.52 220.728 1233.16 213.431 1241.82 209.884C1256.66 204.31 1286.74 193.06 1288.34 192.655C1289.94 192.25 1308.34 186.405 1317.34 183.534L1337.35 181L1394.36 183.534L1434.87 190.121L1525.4 206.337C1543.74 210.56 1581.61 219.512 1586.41 221.539C1591.22 223.566 1622.76 235.897 1637.93 241.809L1686.44 265.625L1723.45 291.469L1771.46 324.914L1813.97 348.73L1855.48 366.466L1888.49 374.574H1916" stroke="url(#paint10_linear_6_25)"/>
    <defs>
        <linearGradient id="paint0_linear_6_25" x1="1" y1="349" x2="1916" y2="349" gradientUnits="userSpaceOnUse">
            <stop stop-color="#079BEE"/>
            <stop offset="1" stop-color="#4EC1AF"/>
        </linearGradient>
        <linearGradient id="paint1_linear_6_25" x1="1" y1="329" x2="1916" y2="329" gradientUnits="userSpaceOnUse">
            <stop stop-color="#079BEE"/>
            <stop offset="1" stop-color="#4EC1AF"/>
        </linearGradient>
        <linearGradient id="paint2_linear_6_25" x1="1" y1="309" x2="1916" y2="309" gradientUnits="userSpaceOnUse">
            <stop stop-color="#079BEE"/>
            <stop offset="1" stop-color="#4EC1AF"/>
        </linearGradient>
        <linearGradient id="paint3_linear_6_25" x1="1" y1="289" x2="1916" y2="289" gradientUnits="userSpaceOnUse">
            <stop stop-color="#079BEE"/>
            <stop offset="1" stop-color="#4EC1AF"/>
        </linearGradient>
        <linearGradient id="paint4_linear_6_25" x1="1" y1="269" x2="1916" y2="269" gradientUnits="userSpaceOnUse">
            <stop stop-color="#079BEE"/>
            <stop offset="1" stop-color="#4EC1AF"/>
        </linearGradient>
        <linearGradient id="paint5_linear_6_25" x1="1" y1="249" x2="1916" y2="249" gradientUnits="userSpaceOnUse">
            <stop stop-color="#079BEE"/>
            <stop offset="1" stop-color="#4EC1AF"/>
        </linearGradient>
        <linearGradient id="paint6_linear_6_25" x1="1" y1="229" x2="1916" y2="229" gradientUnits="userSpaceOnUse">
            <stop stop-color="#079BEE"/>
            <stop offset="1" stop-color="#4EC1AF"/>
        </linearGradient>
        <linearGradient id="paint7_linear_6_25" x1="1" y1="209" x2="1916" y2="209" gradientUnits="userSpaceOnUse">
            <stop stop-color="#079BEE"/>
            <stop offset="1" stop-color="#4EC1AF"/>
        </linearGradient>
        <linearGradient id="paint8_linear_6_25" x1="1" y1="189" x2="1916" y2="189" gradientUnits="userSpaceOnUse">
            <stop stop-color="#079BEE"/>
            <stop offset="1" stop-color="#4EC1AF"/>
        </linearGradient>
        <linearGradient id="paint9_linear_6_25" x1="1" y1="389" x2="1916" y2="389" gradientUnits="userSpaceOnUse">
            <stop stop-color="#079BEE"/>
            <stop offset="1" stop-color="#4EC1AF"/>
        </linearGradient>
        <linearGradient id="paint10_linear_6_25" x1="1" y1="369" x2="1916" y2="369" gradientUnits="userSpaceOnUse">
            <stop stop-color="#079BEE"/>
            <stop offset="1" stop-color="#4EC1AF"/>
        </linearGradient>
    </defs>
</svg>
