<svg width="875" height="411" viewBox="0 0 875 411" fill="none" xmlns="http://www.w3.org/2000/svg">
    <path d="M1 320.333C23.8333 327.833 111 321.433 277 235.833C443 150.233 551.5 240.833 585 296.833C601.167 324.333 681.7 385.533 874.5 410.333" stroke="url(#paint0_linear_6_73)"/>
    <path d="M1 300.333C23.8333 307.833 111 301.433 277 215.833C443 130.233 551.5 220.833 585 276.833C601.167 304.333 681.7 365.533 874.5 390.333" stroke="url(#paint1_linear_6_73)"/>
    <path d="M1 280.333C23.8333 287.833 111 281.433 277 195.833C443 110.233 551.5 200.833 585 256.833C601.167 284.333 681.7 345.533 874.5 370.333" stroke="url(#paint2_linear_6_73)"/>
    <path d="M1 260.333C23.8333 267.833 111 261.433 277 175.833C443 90.2326 551.5 180.833 585 236.833C601.167 264.333 681.7 325.533 874.5 350.333" stroke="url(#paint3_linear_6_73)"/>
    <path d="M1 240.333C23.8333 247.833 111 241.433 277 155.833C443 70.2326 551.5 160.833 585 216.833C601.167 244.333 681.7 305.533 874.5 330.333" stroke="url(#paint4_linear_6_73)"/>
    <path d="M1 220.333C23.8333 227.833 111 221.433 277 135.833C443 50.2326 551.5 140.833 585 196.833C601.167 224.333 681.7 285.533 874.5 310.333" stroke="url(#paint5_linear_6_73)"/>
    <path d="M1 200.333C23.8333 207.833 111 201.433 277 115.833C443 30.2326 551.5 120.833 585 176.833C601.167 204.333 681.7 265.533 874.5 290.333" stroke="url(#paint6_linear_6_73)"/>
    <path d="M1 180.333C23.8333 187.833 111 181.433 277 95.8326C443 10.2326 551.5 100.833 585 156.833C601.167 184.333 681.7 245.533 874.5 270.333" stroke="url(#paint7_linear_6_73)"/>
    <path d="M1 160.333C23.8333 167.833 111 161.433 277 75.8326C443 -9.76736 551.5 80.8326 585 136.833C601.167 164.333 681.7 225.533 874.5 250.333" stroke="url(#paint8_linear_6_73)"/>
    <path d="M1 140.333C23.8333 147.833 111 141.433 277 55.8326C443 -29.7674 551.5 60.8326 585 116.833C601.167 144.333 681.7 205.533 874.5 230.333" stroke="url(#paint9_linear_6_73)"/>
    <path d="M1 120.333C23.8333 127.833 111 121.433 277 35.8326C443 -49.7674 551.5 40.8326 585 96.8326C601.167 124.333 681.7 185.533 874.5 210.333" stroke="url(#paint10_linear_6_73)"/>
    <defs>
        <linearGradient id="paint0_linear_6_73" x1="437.75" y1="410.333" x2="437.75" y2="200.666" gradientUnits="userSpaceOnUse">
            <stop stop-color="#4EC1AF"/>
            <stop offset="1" stop-color="#079BEE"/>
        </linearGradient>
        <linearGradient id="paint1_linear_6_73" x1="437.75" y1="390.333" x2="437.75" y2="180.666" gradientUnits="userSpaceOnUse">
            <stop stop-color="#4EC1AF"/>
            <stop offset="1" stop-color="#079BEE"/>
        </linearGradient>
        <linearGradient id="paint2_linear_6_73" x1="437.75" y1="370.333" x2="437.75" y2="160.666" gradientUnits="userSpaceOnUse">
            <stop stop-color="#4EC1AF"/>
            <stop offset="1" stop-color="#079BEE"/>
        </linearGradient>
        <linearGradient id="paint3_linear_6_73" x1="437.75" y1="350.333" x2="437.75" y2="140.666" gradientUnits="userSpaceOnUse">
            <stop stop-color="#4EC1AF"/>
            <stop offset="1" stop-color="#079BEE"/>
        </linearGradient>
        <linearGradient id="paint4_linear_6_73" x1="437.75" y1="330.333" x2="437.75" y2="120.666" gradientUnits="userSpaceOnUse">
            <stop stop-color="#4EC1AF"/>
            <stop offset="1" stop-color="#079BEE"/>
        </linearGradient>
        <linearGradient id="paint5_linear_6_73" x1="437.75" y1="310.333" x2="437.75" y2="100.666" gradientUnits="userSpaceOnUse">
            <stop stop-color="#4EC1AF"/>
            <stop offset="1" stop-color="#079BEE"/>
        </linearGradient>
        <linearGradient id="paint6_linear_6_73" x1="437.75" y1="290.333" x2="437.75" y2="80.6663" gradientUnits="userSpaceOnUse">
            <stop stop-color="#4EC1AF"/>
            <stop offset="1" stop-color="#079BEE"/>
        </linearGradient>
        <linearGradient id="paint7_linear_6_73" x1="437.75" y1="270.333" x2="437.75" y2="60.6663" gradientUnits="userSpaceOnUse">
            <stop stop-color="#4EC1AF"/>
            <stop offset="1" stop-color="#079BEE"/>
        </linearGradient>
        <linearGradient id="paint8_linear_6_73" x1="437.75" y1="250.333" x2="437.75" y2="40.6663" gradientUnits="userSpaceOnUse">
            <stop stop-color="#4EC1AF"/>
            <stop offset="1" stop-color="#079BEE"/>
        </linearGradient>
        <linearGradient id="paint9_linear_6_73" x1="437.75" y1="230.333" x2="437.75" y2="20.6663" gradientUnits="userSpaceOnUse">
            <stop stop-color="#4EC1AF"/>
            <stop offset="1" stop-color="#079BEE"/>
        </linearGradient>
        <linearGradient id="paint10_linear_6_73" x1="437.75" y1="210.333" x2="437.75" y2="0.666321" gradientUnits="userSpaceOnUse">
            <stop stop-color="#4EC1AF"/>
            <stop offset="1" stop-color="#079BEE"/>
        </linearGradient>
    </defs>
</svg>
