<svg width="729" height="464" viewBox="0 0 729 464" fill="none" xmlns="http://www.w3.org/2000/svg">
        <path d="M1 250.147C61.1667 264.981 223.6 279.747 392 220.147C602.5 145.647 635.5 -4.3528 728.5 1.1472" stroke="url(#paint0_linear_6_48)"/>
        <path d="M1 270.147C61.1667 284.981 223.6 299.747 392 240.147C602.5 165.647 635.5 15.6472 728.5 21.1472" stroke="url(#paint1_linear_6_48)"/>
        <path d="M1 290.147C61.1667 304.981 223.6 319.747 392 260.147C602.5 185.647 635.5 35.6472 728.5 41.1472" stroke="url(#paint2_linear_6_48)"/>
        <path d="M1 310.147C61.1667 324.981 223.6 339.747 392 280.147C602.5 205.647 635.5 55.6472 728.5 61.1472" stroke="url(#paint3_linear_6_48)"/>
        <path d="M1 330.147C61.1667 344.981 223.6 359.747 392 300.147C602.5 225.647 635.5 75.6472 728.5 81.1472" stroke="url(#paint4_linear_6_48)"/>
        <path d="M1 350.147C61.1667 364.981 223.6 379.747 392 320.147C602.5 245.647 635.5 95.6472 728.5 101.147" stroke="url(#paint5_linear_6_48)"/>
        <path d="M1 370.147C61.1667 384.981 223.6 399.747 392 340.147C602.5 265.647 635.5 115.647 728.5 121.147" stroke="url(#paint6_linear_6_48)"/>
        <path d="M1 390.147C61.1667 404.981 223.6 419.747 392 360.147C602.5 285.647 635.5 135.647 728.5 141.147" stroke="url(#paint7_linear_6_48)"/>
        <path d="M1 410.147C61.1667 424.981 223.6 439.747 392 380.147C602.5 305.647 635.5 155.647 728.5 161.147" stroke="url(#paint8_linear_6_48)"/>
        <path d="M1 430.147C61.1667 444.981 223.6 459.747 392 400.147C602.5 325.647 635.5 175.647 728.5 181.147" stroke="url(#paint9_linear_6_48)"/>
        <path d="M1 450.147C61.1667 464.981 223.6 479.747 392 420.147C602.5 345.647 635.5 195.647 728.5 201.147" stroke="url(#paint10_linear_6_48)"/>
        <defs>
            <linearGradient id="paint0_linear_6_48" x1="364.75" y1="1" x2="364.75" y2="263.363" gradientUnits="userSpaceOnUse">
                <stop stop-color="#4EC1AF"/>
                <stop offset="1" stop-color="#079BEE"/>
            </linearGradient>
            <linearGradient id="paint1_linear_6_48" x1="364.75" y1="21" x2="364.75" y2="283.363" gradientUnits="userSpaceOnUse">
                <stop stop-color="#4EC1AF"/>
                <stop offset="1" stop-color="#079BEE"/>
            </linearGradient>
            <linearGradient id="paint2_linear_6_48" x1="364.75" y1="41" x2="364.75" y2="303.363" gradientUnits="userSpaceOnUse">
                <stop stop-color="#4EC1AF"/>
                <stop offset="1" stop-color="#079BEE"/>
            </linearGradient>
            <linearGradient id="paint3_linear_6_48" x1="364.75" y1="61" x2="364.75" y2="323.363" gradientUnits="userSpaceOnUse">
                <stop stop-color="#4EC1AF"/>
                <stop offset="1" stop-color="#079BEE"/>
            </linearGradient>
            <linearGradient id="paint4_linear_6_48" x1="364.75" y1="81" x2="364.75" y2="343.363" gradientUnits="userSpaceOnUse">
                <stop stop-color="#4EC1AF"/>
                <stop offset="1" stop-color="#079BEE"/>
            </linearGradient>
            <linearGradient id="paint5_linear_6_48" x1="364.75" y1="101" x2="364.75" y2="363.363" gradientUnits="userSpaceOnUse">
                <stop stop-color="#4EC1AF"/>
                <stop offset="1" stop-color="#079BEE"/>
            </linearGradient>
            <linearGradient id="paint6_linear_6_48" x1="364.75" y1="121" x2="364.75" y2="383.363" gradientUnits="userSpaceOnUse">
                <stop stop-color="#4EC1AF"/>
                <stop offset="1" stop-color="#079BEE"/>
            </linearGradient>
            <linearGradient id="paint7_linear_6_48" x1="364.75" y1="141" x2="364.75" y2="403.363" gradientUnits="userSpaceOnUse">
                <stop stop-color="#4EC1AF"/>
                <stop offset="1" stop-color="#079BEE"/>
            </linearGradient>
            <linearGradient id="paint8_linear_6_48" x1="364.75" y1="161" x2="364.75" y2="423.363" gradientUnits="userSpaceOnUse">
                <stop stop-color="#4EC1AF"/>
                <stop offset="1" stop-color="#079BEE"/>
            </linearGradient>
            <linearGradient id="paint9_linear_6_48" x1="364.75" y1="181" x2="364.75" y2="443.363" gradientUnits="userSpaceOnUse">
                <stop stop-color="#4EC1AF"/>
                <stop offset="1" stop-color="#079BEE"/>
            </linearGradient>
            <linearGradient id="paint10_linear_6_48" x1="364.75" y1="201" x2="364.75" y2="463.363" gradientUnits="userSpaceOnUse">
                <stop stop-color="#4EC1AF"/>
                <stop offset="1" stop-color="#079BEE"/>
            </linearGradient>
        </defs>
    </svg>        