<svg width="1916" height="578" viewBox="0 0 1916 578" fill="none" xmlns="http://www.w3.org/2000/svg">
    <path d="M1 159.07L7.5017 156.536L25.5064 146.908L48.0123 130.186L68.0175 112.957L88.0227 95.221C93.8576 89.8158 105.727 78.904 106.528 78.4987C107.328 78.0933 124.866 65.8302 133.535 59.7493L156.04 48.6011C161.542 47.2498 172.845 44.4458 174.045 44.0404C175.245 43.635 189.216 41.8446 196.051 41L219.057 44.0404L242.063 50.1213L259.067 56.7089L286.074 70.8976L303.579 85.593L317.083 101.809C321.584 108.565 330.786 122.281 331.586 123.092C332.387 123.902 341.922 139.307 346.59 146.908C352.092 156.03 363.195 174.475 363.595 175.286C364.095 176.299 381.099 198.596 382.6 200.116C384.1 201.636 390.602 209.237 393.102 211.771C395.603 214.305 400.104 218.358 403.605 219.879C407.106 221.399 410.107 224.439 414.108 227.48C418.109 230.52 413.608 227.987 427.111 235.081C437.914 240.756 445.616 242.851 448.117 243.189L458.119 245.722L477.624 251.296L496.129 254.337C502.798 254.337 516.535 254.337 518.135 254.337C520.136 254.337 539.141 255.857 543.142 256.364C546.342 256.769 556.812 256.533 561.646 256.364L597.656 252.817L633.665 247.749C644.168 244.878 665.974 238.932 669.174 238.121C673.176 237.108 693.681 229.507 695.181 229C696.382 228.595 710.018 224.102 716.687 221.906C726.856 218.527 748.195 211.467 752.196 210.251C757.197 208.73 779.203 202.143 785.205 200.623C791.206 199.102 800.209 197.582 804.71 197.075C809.211 196.569 815.713 195.555 820.214 195.555C824.715 195.555 843.72 195.555 844.72 195.555C845.521 195.555 856.057 197.92 861.225 199.102L871.727 203.156C878.229 205.521 891.833 210.352 894.233 210.757C897.234 211.264 912.238 218.865 914.238 220.385C915.839 221.602 925.908 225.96 930.743 227.987C937.745 231.534 952.248 239.033 954.249 240.655C956.75 242.682 978.255 254.844 980.256 255.857C981.856 256.668 1071.61 306.869 1116.29 331.868L1167.8 356.191C1182.81 362.61 1213.12 375.65 1214.32 376.461C1215.52 377.272 1233.16 384.569 1241.82 388.116C1256.66 393.69 1286.74 404.94 1288.34 405.345C1289.94 405.75 1308.34 411.595 1317.34 414.466L1337.35 417L1394.36 414.466L1434.87 407.879L1525.4 391.663C1543.74 387.44 1581.61 378.488 1586.41 376.461C1591.22 374.434 1622.76 362.103 1637.93 356.191L1686.44 332.375L1723.45 306.531L1771.46 273.086L1813.97 249.27L1855.48 231.534L1888.49 223.426H1916" stroke="url(#paint0_linear_2_73)"/>
    <path d="M1 179.07L7.5017 176.536L25.5064 166.908L48.0123 150.186L68.0175 132.957L88.0227 115.221C93.8576 109.816 105.727 98.904 106.528 98.4987C107.328 98.0933 124.866 85.8302 133.535 79.7493L156.04 68.6011C161.542 67.2498 172.845 64.4458 174.045 64.0404C175.245 63.635 189.216 61.8446 196.051 61L219.057 64.0404L242.063 70.1213L259.067 76.7089L286.074 90.8976L303.579 105.593L317.083 121.809C321.584 128.565 330.786 142.281 331.586 143.092C332.387 143.902 341.922 159.307 346.59 166.908C352.092 176.03 363.195 194.475 363.595 195.286C364.095 196.299 381.099 218.596 382.6 220.116C384.1 221.636 390.602 229.237 393.102 231.771C395.603 234.305 400.104 238.358 403.605 239.879C407.106 241.399 410.107 244.439 414.108 247.48C418.109 250.52 413.608 247.987 427.111 255.081C437.914 260.756 445.616 262.851 448.117 263.189L458.119 265.722L477.624 271.296L496.129 274.337C502.798 274.337 516.535 274.337 518.135 274.337C520.136 274.337 539.141 275.857 543.142 276.364C546.342 276.769 556.812 276.533 561.646 276.364L597.656 272.817L633.665 267.749C644.168 264.878 665.974 258.932 669.174 258.121C673.176 257.108 693.681 249.507 695.181 249C696.382 248.595 710.018 244.102 716.687 241.906C726.856 238.527 748.195 231.467 752.196 230.251C757.197 228.73 779.203 222.143 785.205 220.623C791.206 219.102 800.209 217.582 804.71 217.075C809.211 216.569 815.713 215.555 820.214 215.555C824.715 215.555 843.72 215.555 844.72 215.555C845.521 215.555 856.057 217.92 861.225 219.102L871.727 223.156C878.229 225.521 891.833 230.352 894.233 230.757C897.234 231.264 912.238 238.865 914.238 240.385C915.839 241.602 925.908 245.96 930.743 247.987C937.745 251.534 952.248 259.033 954.249 260.655C956.75 262.682 978.255 274.844 980.256 275.857C981.856 276.668 1071.61 326.869 1116.29 351.868L1167.8 376.191C1182.81 382.61 1213.12 395.65 1214.32 396.461C1215.52 397.272 1233.16 404.569 1241.82 408.116C1256.66 413.69 1286.74 424.94 1288.34 425.345C1289.94 425.75 1308.34 431.595 1317.34 434.466L1337.35 437L1394.36 434.466L1434.87 427.879L1525.4 411.663C1543.74 407.44 1581.61 398.488 1586.41 396.461C1591.22 394.434 1622.76 382.103 1637.93 376.191L1686.44 352.375L1723.45 326.531L1771.46 293.086L1813.97 269.27L1855.48 251.534L1888.49 243.426H1916" stroke="url(#paint1_linear_2_73)"/>
    <path d="M1 199.07L7.5017 196.536L25.5064 186.908L48.0123 170.186L68.0175 152.957L88.0227 135.221C93.8576 129.816 105.727 118.904 106.528 118.499C107.328 118.093 124.866 105.83 133.535 99.7493L156.04 88.6011C161.542 87.2498 172.845 84.4458 174.045 84.0404C175.245 83.635 189.216 81.8446 196.051 81L219.057 84.0404L242.063 90.1213L259.067 96.7089L286.074 110.898L303.579 125.593L317.083 141.809C321.584 148.565 330.786 162.281 331.586 163.092C332.387 163.902 341.922 179.307 346.59 186.908C352.092 196.03 363.195 214.475 363.595 215.286C364.095 216.299 381.099 238.596 382.6 240.116C384.1 241.636 390.602 249.237 393.102 251.771C395.603 254.305 400.104 258.358 403.605 259.879C407.106 261.399 410.107 264.439 414.108 267.48C418.109 270.52 413.608 267.987 427.111 275.081C437.914 280.756 445.616 282.851 448.117 283.189L458.119 285.722L477.624 291.296L496.129 294.337C502.798 294.337 516.535 294.337 518.135 294.337C520.136 294.337 539.141 295.857 543.142 296.364C546.342 296.769 556.812 296.533 561.646 296.364L597.656 292.817L633.665 287.749C644.168 284.878 665.974 278.932 669.174 278.121C673.176 277.108 693.681 269.507 695.181 269C696.382 268.595 710.018 264.102 716.687 261.906C726.856 258.527 748.195 251.467 752.196 250.251C757.197 248.73 779.203 242.143 785.205 240.623C791.206 239.102 800.209 237.582 804.71 237.075C809.211 236.569 815.713 235.555 820.214 235.555C824.715 235.555 843.72 235.555 844.72 235.555C845.521 235.555 856.057 237.92 861.225 239.102L871.727 243.156C878.229 245.521 891.833 250.352 894.233 250.757C897.234 251.264 912.238 258.865 914.238 260.385C915.839 261.602 925.908 265.96 930.743 267.987C937.745 271.534 952.248 279.033 954.249 280.655C956.75 282.682 978.255 294.844 980.256 295.857C981.856 296.668 1071.61 346.869 1116.29 371.868L1167.8 396.191C1182.81 402.61 1213.12 415.65 1214.32 416.461C1215.52 417.272 1233.16 424.569 1241.82 428.116C1256.66 433.69 1286.74 444.94 1288.34 445.345C1289.94 445.75 1308.34 451.595 1317.34 454.466L1337.35 457L1394.36 454.466L1434.87 447.879L1525.4 431.663C1543.74 427.44 1581.61 418.488 1586.41 416.461C1591.22 414.434 1622.76 402.103 1637.93 396.191L1686.44 372.375L1723.45 346.531L1771.46 313.086L1813.97 289.27L1855.48 271.534L1888.49 263.426H1916" stroke="url(#paint2_linear_2_73)"/>
    <path d="M1 219.07L7.5017 216.536L25.5064 206.908L48.0123 190.186L68.0175 172.957L88.0227 155.221C93.8576 149.816 105.727 138.904 106.528 138.499C107.328 138.093 124.866 125.83 133.535 119.749L156.04 108.601C161.542 107.25 172.845 104.446 174.045 104.04C175.245 103.635 189.216 101.845 196.051 101L219.057 104.04L242.063 110.121L259.067 116.709L286.074 130.898L303.579 145.593L317.083 161.809C321.584 168.565 330.786 182.281 331.586 183.092C332.387 183.902 341.922 199.307 346.59 206.908C352.092 216.03 363.195 234.475 363.595 235.286C364.095 236.299 381.099 258.596 382.6 260.116C384.1 261.636 390.602 269.237 393.102 271.771C395.603 274.305 400.104 278.358 403.605 279.879C407.106 281.399 410.107 284.439 414.108 287.48C418.109 290.52 413.608 287.987 427.111 295.081C437.914 300.756 445.616 302.851 448.117 303.189L458.119 305.722L477.624 311.296L496.129 314.337C502.798 314.337 516.535 314.337 518.135 314.337C520.136 314.337 539.141 315.857 543.142 316.364C546.342 316.769 556.812 316.533 561.646 316.364L597.656 312.817L633.665 307.749C644.168 304.878 665.974 298.932 669.174 298.121C673.176 297.108 693.681 289.507 695.181 289C696.382 288.595 710.018 284.102 716.687 281.906C726.856 278.527 748.195 271.467 752.196 270.251C757.197 268.73 779.203 262.143 785.205 260.623C791.206 259.102 800.209 257.582 804.71 257.075C809.211 256.569 815.713 255.555 820.214 255.555C824.715 255.555 843.72 255.555 844.72 255.555C845.521 255.555 856.057 257.92 861.225 259.102L871.727 263.156C878.229 265.521 891.833 270.352 894.233 270.757C897.234 271.264 912.238 278.865 914.238 280.385C915.839 281.602 925.908 285.96 930.743 287.987C937.745 291.534 952.248 299.033 954.249 300.655C956.75 302.682 978.255 314.844 980.256 315.857C981.856 316.668 1071.61 366.869 1116.29 391.868L1167.8 416.191C1182.81 422.61 1213.12 435.65 1214.32 436.461C1215.52 437.272 1233.16 444.569 1241.82 448.116C1256.66 453.69 1286.74 464.94 1288.34 465.345C1289.94 465.75 1308.34 471.595 1317.34 474.466L1337.35 477L1394.36 474.466L1434.87 467.879L1525.4 451.663C1543.74 447.44 1581.61 438.488 1586.41 436.461C1591.22 434.434 1622.76 422.103 1637.93 416.191L1686.44 392.375L1723.45 366.531L1771.46 333.086L1813.97 309.27L1855.48 291.534L1888.49 283.426H1916" stroke="url(#paint3_linear_2_73)"/>
    <path d="M1 239.07L7.5017 236.536L25.5064 226.908L48.0123 210.186L68.0175 192.957L88.0227 175.221C93.8576 169.816 105.727 158.904 106.528 158.499C107.328 158.093 124.866 145.83 133.535 139.749L156.04 128.601C161.542 127.25 172.845 124.446 174.045 124.04C175.245 123.635 189.216 121.845 196.051 121L219.057 124.04L242.063 130.121L259.067 136.709L286.074 150.898L303.579 165.593L317.083 181.809C321.584 188.565 330.786 202.281 331.586 203.092C332.387 203.902 341.922 219.307 346.59 226.908C352.092 236.03 363.195 254.475 363.595 255.286C364.095 256.299 381.099 278.596 382.6 280.116C384.1 281.636 390.602 289.237 393.102 291.771C395.603 294.305 400.104 298.358 403.605 299.879C407.106 301.399 410.107 304.439 414.108 307.48C418.109 310.52 413.608 307.987 427.111 315.081C437.914 320.756 445.616 322.851 448.117 323.189L458.119 325.722L477.624 331.296L496.129 334.337C502.798 334.337 516.535 334.337 518.135 334.337C520.136 334.337 539.141 335.857 543.142 336.364C546.342 336.769 556.812 336.533 561.646 336.364L597.656 332.817L633.665 327.749C644.168 324.878 665.974 318.932 669.174 318.121C673.176 317.108 693.681 309.507 695.181 309C696.382 308.595 710.018 304.102 716.687 301.906C726.856 298.527 748.195 291.467 752.196 290.251C757.197 288.73 779.203 282.143 785.205 280.623C791.206 279.102 800.209 277.582 804.71 277.075C809.211 276.569 815.713 275.555 820.214 275.555C824.715 275.555 843.72 275.555 844.72 275.555C845.521 275.555 856.057 277.92 861.225 279.102L871.727 283.156C878.229 285.521 891.833 290.352 894.233 290.757C897.234 291.264 912.238 298.865 914.238 300.385C915.839 301.602 925.908 305.96 930.743 307.987C937.745 311.534 952.248 319.033 954.249 320.655C956.75 322.682 978.255 334.844 980.256 335.857C981.856 336.668 1071.61 386.869 1116.29 411.868L1167.8 436.191C1182.81 442.61 1213.12 455.65 1214.32 456.461C1215.52 457.272 1233.16 464.569 1241.82 468.116C1256.66 473.69 1286.74 484.94 1288.34 485.345C1289.94 485.75 1308.34 491.595 1317.34 494.466L1337.35 497L1394.36 494.466L1434.87 487.879L1525.4 471.663C1543.74 467.44 1581.61 458.488 1586.41 456.461C1591.22 454.434 1622.76 442.103 1637.93 436.191L1686.44 412.375L1723.45 386.531L1771.46 353.086L1813.97 329.27L1855.48 311.534L1888.49 303.426H1916" stroke="url(#paint4_linear_2_73)"/>
    <path d="M1 259.07L7.5017 256.536L25.5064 246.908L48.0123 230.186L68.0175 212.957L88.0227 195.221C93.8576 189.816 105.727 178.904 106.528 178.499C107.328 178.093 124.866 165.83 133.535 159.749L156.04 148.601C161.542 147.25 172.845 144.446 174.045 144.04C175.245 143.635 189.216 141.845 196.051 141L219.057 144.04L242.063 150.121L259.067 156.709L286.074 170.898L303.579 185.593L317.083 201.809C321.584 208.565 330.786 222.281 331.586 223.092C332.387 223.902 341.922 239.307 346.59 246.908C352.092 256.03 363.195 274.475 363.595 275.286C364.095 276.299 381.099 298.596 382.6 300.116C384.1 301.636 390.602 309.237 393.102 311.771C395.603 314.305 400.104 318.358 403.605 319.879C407.106 321.399 410.107 324.439 414.108 327.48C418.109 330.52 413.608 327.987 427.111 335.081C437.914 340.756 445.616 342.851 448.117 343.189L458.119 345.722L477.624 351.296L496.129 354.337C502.798 354.337 516.535 354.337 518.135 354.337C520.136 354.337 539.141 355.857 543.142 356.364C546.342 356.769 556.812 356.533 561.646 356.364L597.656 352.817L633.665 347.749C644.168 344.878 665.974 338.932 669.174 338.121C673.176 337.108 693.681 329.507 695.181 329C696.382 328.595 710.018 324.102 716.687 321.906C726.856 318.527 748.195 311.467 752.196 310.251C757.197 308.73 779.203 302.143 785.205 300.623C791.206 299.102 800.209 297.582 804.71 297.075C809.211 296.569 815.713 295.555 820.214 295.555C824.715 295.555 843.72 295.555 844.72 295.555C845.521 295.555 856.057 297.92 861.225 299.102L871.727 303.156C878.229 305.521 891.833 310.352 894.233 310.757C897.234 311.264 912.238 318.865 914.238 320.385C915.839 321.602 925.908 325.96 930.743 327.987C937.745 331.534 952.248 339.033 954.249 340.655C956.75 342.682 978.255 354.844 980.256 355.857C981.856 356.668 1071.61 406.869 1116.29 431.868L1167.8 456.191C1182.81 462.61 1213.12 475.65 1214.32 476.461C1215.52 477.272 1233.16 484.569 1241.82 488.116C1256.66 493.69 1286.74 504.94 1288.34 505.345C1289.94 505.75 1308.34 511.595 1317.34 514.466L1337.35 517L1394.36 514.466L1434.87 507.879L1525.4 491.663C1543.74 487.44 1581.61 478.488 1586.41 476.461C1591.22 474.434 1622.76 462.103 1637.93 456.191L1686.44 432.375L1723.45 406.531L1771.46 373.086L1813.97 349.27L1855.48 331.534L1888.49 323.426H1916" stroke="url(#paint5_linear_2_73)"/>
    <path d="M1 279.07L7.5017 276.536L25.5064 266.908L48.0123 250.186L68.0175 232.957L88.0227 215.221C93.8576 209.816 105.727 198.904 106.528 198.499C107.328 198.093 124.866 185.83 133.535 179.749L156.04 168.601C161.542 167.25 172.845 164.446 174.045 164.04C175.245 163.635 189.216 161.845 196.051 161L219.057 164.04L242.063 170.121L259.067 176.709L286.074 190.898L303.579 205.593L317.083 221.809C321.584 228.565 330.786 242.281 331.586 243.092C332.387 243.902 341.922 259.307 346.59 266.908C352.092 276.03 363.195 294.475 363.595 295.286C364.095 296.299 381.099 318.596 382.6 320.116C384.1 321.636 390.602 329.237 393.102 331.771C395.603 334.305 400.104 338.358 403.605 339.879C407.106 341.399 410.107 344.439 414.108 347.48C418.109 350.52 413.608 347.987 427.111 355.081C437.914 360.756 445.616 362.851 448.117 363.189L458.119 365.722L477.624 371.296L496.129 374.337C502.798 374.337 516.535 374.337 518.135 374.337C520.136 374.337 539.141 375.857 543.142 376.364C546.342 376.769 556.812 376.533 561.646 376.364L597.656 372.817L633.665 367.749C644.168 364.878 665.974 358.932 669.174 358.121C673.176 357.108 693.681 349.507 695.181 349C696.382 348.595 710.018 344.102 716.687 341.906C726.856 338.527 748.195 331.467 752.196 330.251C757.197 328.73 779.203 322.143 785.205 320.623C791.206 319.102 800.209 317.582 804.71 317.075C809.211 316.569 815.713 315.555 820.214 315.555C824.715 315.555 843.72 315.555 844.72 315.555C845.521 315.555 856.057 317.92 861.225 319.102L871.727 323.156C878.229 325.521 891.833 330.352 894.233 330.757C897.234 331.264 912.238 338.865 914.238 340.385C915.839 341.602 925.908 345.96 930.743 347.987C937.745 351.534 952.248 359.033 954.249 360.655C956.75 362.682 978.255 374.844 980.256 375.857C981.856 376.668 1071.61 426.869 1116.29 451.868L1167.8 476.191C1182.81 482.61 1213.12 495.65 1214.32 496.461C1215.52 497.272 1233.16 504.569 1241.82 508.116C1256.66 513.69 1286.74 524.94 1288.34 525.345C1289.94 525.75 1308.34 531.595 1317.34 534.466L1337.35 537L1394.36 534.466L1434.87 527.879L1525.4 511.663C1543.74 507.44 1581.61 498.488 1586.41 496.461C1591.22 494.434 1622.76 482.103 1637.93 476.191L1686.44 452.375L1723.45 426.531L1771.46 393.086L1813.97 369.27L1855.48 351.534L1888.49 343.426H1916" stroke="url(#paint6_linear_2_73)"/>
    <path d="M1 299.07L7.5017 296.536L25.5064 286.908L48.0123 270.186L68.0175 252.957L88.0227 235.221C93.8576 229.816 105.727 218.904 106.528 218.499C107.328 218.093 124.866 205.83 133.535 199.749L156.04 188.601C161.542 187.25 172.845 184.446 174.045 184.04C175.245 183.635 189.216 181.845 196.051 181L219.057 184.04L242.063 190.121L259.067 196.709L286.074 210.898L303.579 225.593L317.083 241.809C321.584 248.565 330.786 262.281 331.586 263.092C332.387 263.902 341.922 279.307 346.59 286.908C352.092 296.03 363.195 314.475 363.595 315.286C364.095 316.299 381.099 338.596 382.6 340.116C384.1 341.636 390.602 349.237 393.102 351.771C395.603 354.305 400.104 358.358 403.605 359.879C407.106 361.399 410.107 364.439 414.108 367.48C418.109 370.52 413.608 367.987 427.111 375.081C437.914 380.756 445.616 382.851 448.117 383.189L458.119 385.722L477.624 391.296L496.129 394.337C502.798 394.337 516.535 394.337 518.135 394.337C520.136 394.337 539.141 395.857 543.142 396.364C546.342 396.769 556.812 396.533 561.646 396.364L597.656 392.817L633.665 387.749C644.168 384.878 665.974 378.932 669.174 378.121C673.176 377.108 693.681 369.507 695.181 369C696.382 368.595 710.018 364.102 716.687 361.906C726.856 358.527 748.195 351.467 752.196 350.251C757.197 348.73 779.203 342.143 785.205 340.623C791.206 339.102 800.209 337.582 804.71 337.075C809.211 336.569 815.713 335.555 820.214 335.555C824.715 335.555 843.72 335.555 844.72 335.555C845.521 335.555 856.057 337.92 861.225 339.102L871.727 343.156C878.229 345.521 891.833 350.352 894.233 350.757C897.234 351.264 912.238 358.865 914.238 360.385C915.839 361.602 925.908 365.96 930.743 367.987C937.745 371.534 952.248 379.033 954.249 380.655C956.75 382.682 978.255 394.844 980.256 395.857C981.856 396.668 1071.61 446.869 1116.29 471.868L1167.8 496.191C1182.81 502.61 1213.12 515.65 1214.32 516.461C1215.52 517.272 1233.16 524.569 1241.82 528.116C1256.66 533.69 1286.74 544.94 1288.34 545.345C1289.94 545.75 1308.34 551.595 1317.34 554.466L1337.35 557L1394.36 554.466L1434.87 547.879L1525.4 531.663C1543.74 527.44 1581.61 518.488 1586.41 516.461C1591.22 514.434 1622.76 502.103 1637.93 496.191L1686.44 472.375L1723.45 446.531L1771.46 413.086L1813.97 389.27L1855.48 371.534L1888.49 363.426H1916" stroke="url(#paint7_linear_2_73)"/>
    <path d="M1 319.07L7.5017 316.536L25.5064 306.908L48.0123 290.186L68.0175 272.957L88.0227 255.221C93.8576 249.816 105.727 238.904 106.528 238.499C107.328 238.093 124.866 225.83 133.535 219.749L156.04 208.601C161.542 207.25 172.845 204.446 174.045 204.04C175.245 203.635 189.216 201.845 196.051 201L219.057 204.04L242.063 210.121L259.067 216.709L286.074 230.898L303.579 245.593L317.083 261.809C321.584 268.565 330.786 282.281 331.586 283.092C332.387 283.902 341.922 299.307 346.59 306.908C352.092 316.03 363.195 334.475 363.595 335.286C364.095 336.299 381.099 358.596 382.6 360.116C384.1 361.636 390.602 369.237 393.102 371.771C395.603 374.305 400.104 378.358 403.605 379.879C407.106 381.399 410.107 384.439 414.108 387.48C418.109 390.52 413.608 387.987 427.111 395.081C437.914 400.756 445.616 402.851 448.117 403.189L458.119 405.722L477.624 411.296L496.129 414.337C502.798 414.337 516.535 414.337 518.135 414.337C520.136 414.337 539.141 415.857 543.142 416.364C546.342 416.769 556.812 416.533 561.646 416.364L597.656 412.817L633.665 407.749C644.168 404.878 665.974 398.932 669.174 398.121C673.176 397.108 693.681 389.507 695.181 389C696.382 388.595 710.018 384.102 716.687 381.906C726.856 378.527 748.195 371.467 752.196 370.251C757.197 368.73 779.203 362.143 785.205 360.623C791.206 359.102 800.209 357.582 804.71 357.075C809.211 356.569 815.713 355.555 820.214 355.555C824.715 355.555 843.72 355.555 844.72 355.555C845.521 355.555 856.057 357.92 861.225 359.102L871.727 363.156C878.229 365.521 891.833 370.352 894.233 370.757C897.234 371.264 912.238 378.865 914.238 380.385C915.839 381.602 925.908 385.96 930.743 387.987C937.745 391.534 952.248 399.033 954.249 400.655C956.75 402.682 978.255 414.844 980.256 415.857C981.856 416.668 1071.61 466.869 1116.29 491.868L1167.8 516.191C1182.81 522.61 1213.12 535.65 1214.32 536.461C1215.52 537.272 1233.16 544.569 1241.82 548.116C1256.66 553.69 1286.74 564.94 1288.34 565.345C1289.94 565.75 1308.34 571.595 1317.34 574.466L1337.35 577L1394.36 574.466L1434.87 567.879L1525.4 551.663C1543.74 547.44 1581.61 538.488 1586.41 536.461C1591.22 534.434 1622.76 522.103 1637.93 516.191L1686.44 492.375L1723.45 466.531L1771.46 433.086L1813.97 409.27L1855.48 391.534L1888.49 383.426H1916" stroke="url(#paint8_linear_2_73)"/>
    <path d="M1 119.07L7.5017 116.536L25.5064 106.908L48.0123 90.186L68.0175 72.9569L88.0227 55.221C93.8576 49.8158 105.727 38.904 106.528 38.4987C107.328 38.0933 124.866 25.8302 133.535 19.7493L156.04 8.60108C161.542 7.24978 172.845 4.44582 174.045 4.04043C175.245 3.63504 189.216 1.84456 196.051 1L219.057 4.04043L242.063 10.1213L259.067 16.7089L286.074 30.8976L303.579 45.593L317.083 61.8086C321.584 68.5651 330.786 82.2809 331.586 83.0916C332.387 83.9024 341.922 99.3073 346.59 106.908C352.092 116.03 363.195 134.475 363.595 135.286C364.095 136.299 381.099 158.596 382.6 160.116C384.1 161.636 390.602 169.237 393.102 171.771C395.603 174.305 400.104 178.358 403.605 179.879C407.106 181.399 410.107 184.439 414.108 187.48C418.109 190.52 413.608 187.987 427.111 195.081C437.914 200.756 445.616 202.851 448.117 203.189L458.119 205.722L477.624 211.296L496.129 214.337C502.798 214.337 516.535 214.337 518.135 214.337C520.136 214.337 539.141 215.857 543.142 216.364C546.342 216.769 556.812 216.533 561.646 216.364L597.656 212.817L633.665 207.749C644.168 204.878 665.974 198.932 669.174 198.121C673.176 197.108 693.681 189.507 695.181 189C696.382 188.595 710.018 184.102 716.687 181.906C726.856 178.527 748.195 171.467 752.196 170.251C757.197 168.73 779.203 162.143 785.205 160.623C791.206 159.102 800.209 157.582 804.71 157.075C809.211 156.569 815.713 155.555 820.214 155.555C824.715 155.555 843.72 155.555 844.72 155.555C845.521 155.555 856.057 157.92 861.225 159.102L871.727 163.156C878.229 165.521 891.833 170.352 894.233 170.757C897.234 171.264 912.238 178.865 914.238 180.385C915.839 181.602 925.908 185.96 930.743 187.987C937.745 191.534 952.248 199.033 954.249 200.655C956.75 202.682 978.255 214.844 980.256 215.857C981.856 216.668 1071.61 266.869 1116.29 291.868L1167.8 316.191C1182.81 322.61 1213.12 335.65 1214.32 336.461C1215.52 337.272 1233.16 344.569 1241.82 348.116C1256.66 353.69 1286.74 364.94 1288.34 365.345C1289.94 365.75 1308.34 371.595 1317.34 374.466L1337.35 377L1394.36 374.466L1434.87 367.879L1525.4 351.663C1543.74 347.44 1581.61 338.488 1586.41 336.461C1591.22 334.434 1622.76 322.103 1637.93 316.191L1686.44 292.375L1723.45 266.531L1771.46 233.086L1813.97 209.27L1855.48 191.534L1888.49 183.426H1916" stroke="url(#paint9_linear_2_73)"/>
    <path d="M1 139.07L7.5017 136.536L25.5064 126.908L48.0123 110.186L68.0175 92.9569L88.0227 75.221C93.8576 69.8158 105.727 58.904 106.528 58.4987C107.328 58.0933 124.866 45.8302 133.535 39.7493L156.04 28.6011C161.542 27.2498 172.845 24.4458 174.045 24.0404C175.245 23.635 189.216 21.8446 196.051 21L219.057 24.0404L242.063 30.1213L259.067 36.7089L286.074 50.8976L303.579 65.593L317.083 81.8086C321.584 88.5651 330.786 102.281 331.586 103.092C332.387 103.902 341.922 119.307 346.59 126.908C352.092 136.03 363.195 154.475 363.595 155.286C364.095 156.299 381.099 178.596 382.6 180.116C384.1 181.636 390.602 189.237 393.102 191.771C395.603 194.305 400.104 198.358 403.605 199.879C407.106 201.399 410.107 204.439 414.108 207.48C418.109 210.52 413.608 207.987 427.111 215.081C437.914 220.756 445.616 222.851 448.117 223.189L458.119 225.722L477.624 231.296L496.129 234.337C502.798 234.337 516.535 234.337 518.135 234.337C520.136 234.337 539.141 235.857 543.142 236.364C546.342 236.769 556.812 236.533 561.646 236.364L597.656 232.817L633.665 227.749C644.168 224.878 665.974 218.932 669.174 218.121C673.176 217.108 693.681 209.507 695.181 209C696.382 208.595 710.018 204.102 716.687 201.906C726.856 198.527 748.195 191.467 752.196 190.251C757.197 188.73 779.203 182.143 785.205 180.623C791.206 179.102 800.209 177.582 804.71 177.075C809.211 176.569 815.713 175.555 820.214 175.555C824.715 175.555 843.72 175.555 844.72 175.555C845.521 175.555 856.057 177.92 861.225 179.102L871.727 183.156C878.229 185.521 891.833 190.352 894.233 190.757C897.234 191.264 912.238 198.865 914.238 200.385C915.839 201.602 925.908 205.96 930.743 207.987C937.745 211.534 952.248 219.033 954.249 220.655C956.75 222.682 978.255 234.844 980.256 235.857C981.856 236.668 1071.61 286.869 1116.29 311.868L1167.8 336.191C1182.81 342.61 1213.12 355.65 1214.32 356.461C1215.52 357.272 1233.16 364.569 1241.82 368.116C1256.66 373.69 1286.74 384.94 1288.34 385.345C1289.94 385.75 1308.34 391.595 1317.34 394.466L1337.35 397L1394.36 394.466L1434.87 387.879L1525.4 371.663C1543.74 367.44 1581.61 358.488 1586.41 356.461C1591.22 354.434 1622.76 342.103 1637.93 336.191L1686.44 312.375L1723.45 286.531L1771.46 253.086L1813.97 229.27L1855.48 211.534L1888.49 203.426H1916" stroke="url(#paint10_linear_2_73)"/>
    <defs>
        <linearGradient id="paint0_linear_2_73" x1="1" y1="229" x2="1916" y2="229" gradientUnits="userSpaceOnUse">
            <stop stop-color="#079BEE"/>
            <stop offset="1" stop-color="#4EC1AF"/>
        </linearGradient>
        <linearGradient id="paint1_linear_2_73" x1="1" y1="249" x2="1916" y2="249" gradientUnits="userSpaceOnUse">
            <stop stop-color="#079BEE"/>
            <stop offset="1" stop-color="#4EC1AF"/>
        </linearGradient>
        <linearGradient id="paint2_linear_2_73" x1="1" y1="269" x2="1916" y2="269" gradientUnits="userSpaceOnUse">
            <stop stop-color="#079BEE"/>
            <stop offset="1" stop-color="#4EC1AF"/>
        </linearGradient>
        <linearGradient id="paint3_linear_2_73" x1="1" y1="289" x2="1916" y2="289" gradientUnits="userSpaceOnUse">
            <stop stop-color="#079BEE"/>
            <stop offset="1" stop-color="#4EC1AF"/>
        </linearGradient>
        <linearGradient id="paint4_linear_2_73" x1="1" y1="309" x2="1916" y2="309" gradientUnits="userSpaceOnUse">
            <stop stop-color="#079BEE"/>
            <stop offset="1" stop-color="#4EC1AF"/>
        </linearGradient>
        <linearGradient id="paint5_linear_2_73" x1="1" y1="329" x2="1916" y2="329" gradientUnits="userSpaceOnUse">
            <stop stop-color="#079BEE"/>
            <stop offset="1" stop-color="#4EC1AF"/>
        </linearGradient>
        <linearGradient id="paint6_linear_2_73" x1="1" y1="349" x2="1916" y2="349" gradientUnits="userSpaceOnUse">
            <stop stop-color="#079BEE"/>
            <stop offset="1" stop-color="#4EC1AF"/>
        </linearGradient>
        <linearGradient id="paint7_linear_2_73" x1="1" y1="369" x2="1916" y2="369" gradientUnits="userSpaceOnUse">
            <stop stop-color="#079BEE"/>
            <stop offset="1" stop-color="#4EC1AF"/>
        </linearGradient>
        <linearGradient id="paint8_linear_2_73" x1="1" y1="389" x2="1916" y2="389" gradientUnits="userSpaceOnUse">
            <stop stop-color="#079BEE"/>
            <stop offset="1" stop-color="#4EC1AF"/>
        </linearGradient>
        <linearGradient id="paint9_linear_2_73" x1="1" y1="189" x2="1916" y2="189" gradientUnits="userSpaceOnUse">
            <stop stop-color="#079BEE"/>
            <stop offset="1" stop-color="#4EC1AF"/>
        </linearGradient>
        <linearGradient id="paint10_linear_2_73" x1="1" y1="209" x2="1916" y2="209" gradientUnits="userSpaceOnUse">
            <stop stop-color="#079BEE"/>
            <stop offset="1" stop-color="#4EC1AF"/>
        </linearGradient>
    </defs>
</svg>
