<svg width="1915" height="574" viewBox="0 0 1915 574" fill="none" xmlns="http://www.w3.org/2000/svg">
    <path d="M1 411.525C2 408.525 81 293.025 131 259.025C171 231.825 197.333 215.025 205.5 210.025C215.833 207.192 238.3 201.425 245.5 201.025C254.5 200.525 331.5 206.525 395.5 310.525C459.5 414.525 471 453.025 511.5 476.025C543.9 494.425 590 471.025 609 457.025L694.5 382.525C714.5 356.858 784.1 311.725 902.5 336.525C1050.5 367.525 1042 390.525 1228.5 453.025C1415 515.525 1379.5 512.525 1538 547.025C1664.8 574.625 1780.83 575.192 1823 572.025L1914 563.025" stroke="url(#paint0_linear_6_12)"/>
    <path d="M1 391.525C2 388.525 81 273.025 131 239.025C171 211.825 197.333 195.025 205.5 190.025C215.833 187.192 238.3 181.425 245.5 181.025C254.5 180.525 331.5 186.525 395.5 290.525C459.5 394.525 471 433.025 511.5 456.025C543.9 474.425 590 451.025 609 437.025L694.5 362.525C714.5 336.858 784.1 291.725 902.5 316.525C1050.5 347.525 1042 370.525 1228.5 433.025C1415 495.525 1379.5 492.525 1538 527.025C1664.8 554.625 1780.83 555.192 1823 552.025L1914 543.025" stroke="url(#paint1_linear_6_12)"/>
    <path d="M1 371.525C2 368.525 81 253.025 131 219.025C171 191.825 197.333 175.025 205.5 170.025C215.833 167.192 238.3 161.425 245.5 161.025C254.5 160.525 331.5 166.525 395.5 270.525C459.5 374.525 471 413.025 511.5 436.025C543.9 454.425 590 431.025 609 417.025L694.5 342.525C714.5 316.858 784.1 271.725 902.5 296.525C1050.5 327.525 1042 350.525 1228.5 413.025C1415 475.525 1379.5 472.525 1538 507.025C1664.8 534.625 1780.83 535.192 1823 532.025L1914 523.025" stroke="url(#paint2_linear_6_12)"/>
    <path d="M1 351.525C2 348.525 81 233.025 131 199.025C171 171.825 197.333 155.025 205.5 150.025C215.833 147.192 238.3 141.425 245.5 141.025C254.5 140.525 331.5 146.525 395.5 250.525C459.5 354.525 471 393.025 511.5 416.025C543.9 434.425 590 411.025 609 397.025L694.5 322.525C714.5 296.858 784.1 251.725 902.5 276.525C1050.5 307.525 1042 330.525 1228.5 393.025C1415 455.525 1379.5 452.525 1538 487.025C1664.8 514.625 1780.83 515.192 1823 512.025L1914 503.025" stroke="url(#paint3_linear_6_12)"/>
    <path d="M1 331.525C2 328.525 81 213.025 131 179.025C171 151.825 197.333 135.025 205.5 130.025C215.833 127.192 238.3 121.425 245.5 121.025C254.5 120.525 331.5 126.525 395.5 230.525C459.5 334.525 471 373.025 511.5 396.025C543.9 414.425 590 391.025 609 377.025L694.5 302.525C714.5 276.858 784.1 231.725 902.5 256.525C1050.5 287.525 1042 310.525 1228.5 373.025C1415 435.525 1379.5 432.525 1538 467.025C1664.8 494.625 1780.83 495.192 1823 492.025L1914 483.025" stroke="url(#paint4_linear_6_12)"/>
    <path d="M1 311.525C2 308.525 81 193.025 131 159.025C171 131.825 197.333 115.025 205.5 110.025C215.833 107.192 238.3 101.425 245.5 101.025C254.5 100.525 331.5 106.525 395.5 210.525C459.5 314.525 471 353.025 511.5 376.025C543.9 394.425 590 371.025 609 357.025L694.5 282.525C714.5 256.858 784.1 211.725 902.5 236.525C1050.5 267.525 1042 290.525 1228.5 353.025C1415 415.525 1379.5 412.525 1538 447.025C1664.8 474.625 1780.83 475.192 1823 472.025L1914 463.025" stroke="url(#paint5_linear_6_12)"/>
    <path d="M1 291.525C2 288.525 81 173.025 131 139.025C171 111.825 197.333 95.025 205.5 90.025C215.833 87.1917 238.3 81.425 245.5 81.025C254.5 80.525 331.5 86.525 395.5 190.525C459.5 294.525 471 333.025 511.5 356.025C543.9 374.425 590 351.025 609 337.025L694.5 262.525C714.5 236.858 784.1 191.725 902.5 216.525C1050.5 247.525 1042 270.525 1228.5 333.025C1415 395.525 1379.5 392.525 1538 427.025C1664.8 454.625 1780.83 455.192 1823 452.025L1914 443.025" stroke="url(#paint6_linear_6_12)"/>
    <path d="M1 271.525C2 268.525 81 153.025 131 119.025C171 91.825 197.333 75.025 205.5 70.025C215.833 67.1917 238.3 61.425 245.5 61.025C254.5 60.525 331.5 66.525 395.5 170.525C459.5 274.525 471 313.025 511.5 336.025C543.9 354.425 590 331.025 609 317.025L694.5 242.525C714.5 216.858 784.1 171.725 902.5 196.525C1050.5 227.525 1042 250.525 1228.5 313.025C1415 375.525 1379.5 372.525 1538 407.025C1664.8 434.625 1780.83 435.192 1823 432.025L1914 423.025" stroke="url(#paint7_linear_6_12)"/>
    <path d="M1 251.525C2 248.525 81 133.025 131 99.025C171 71.825 197.333 55.025 205.5 50.025C215.833 47.1917 238.3 41.425 245.5 41.025C254.5 40.525 331.5 46.525 395.5 150.525C459.5 254.525 471 293.025 511.5 316.025C543.9 334.425 590 311.025 609 297.025L694.5 222.525C714.5 196.858 784.1 151.725 902.5 176.525C1050.5 207.525 1042 230.525 1228.5 293.025C1415 355.525 1379.5 352.525 1538 387.025C1664.8 414.625 1780.83 415.192 1823 412.025L1914 403.025" stroke="url(#paint8_linear_6_12)"/>
    <path d="M1 231.525C2 228.525 81 113.025 131 79.025C171 51.825 197.333 35.025 205.5 30.025C215.833 27.1917 238.3 21.425 245.5 21.025C254.5 20.525 331.5 26.525 395.5 130.525C459.5 234.525 471 273.025 511.5 296.025C543.9 314.425 590 291.025 609 277.025L694.5 202.525C714.5 176.858 784.1 131.725 902.5 156.525C1050.5 187.525 1042 210.525 1228.5 273.025C1415 335.525 1379.5 332.525 1538 367.025C1664.8 394.625 1780.83 395.192 1823 392.025L1914 383.025" stroke="url(#paint9_linear_6_12)"/>
    <path d="M1 211.525C2 208.525 81 93.025 131 59.025C171 31.825 197.333 15.025 205.5 10.025C215.833 7.19171 238.3 1.42504 245.5 1.02504C254.5 0.525041 331.5 6.52504 395.5 110.525C459.5 214.525 471 253.025 511.5 276.025C543.9 294.425 590 271.025 609 257.025L694.5 182.525C714.5 156.858 784.1 111.725 902.5 136.525C1050.5 167.525 1042 190.525 1228.5 253.025C1415 315.525 1379.5 312.525 1538 347.025C1664.8 374.625 1780.83 375.192 1823 372.025L1914 363.025" stroke="url(#paint10_linear_6_12)"/>
    <defs>
        <linearGradient id="paint0_linear_6_12" x1="1" y1="387.169" x2="1914" y2="387.169" gradientUnits="userSpaceOnUse">
            <stop stop-color="#4EC1AF"/>
            <stop offset="1" stop-color="#079BEE"/>
        </linearGradient>
        <linearGradient id="paint1_linear_6_12" x1="1" y1="367.169" x2="1914" y2="367.169" gradientUnits="userSpaceOnUse">
            <stop stop-color="#4EC1AF"/>
            <stop offset="1" stop-color="#079BEE"/>
        </linearGradient>
        <linearGradient id="paint2_linear_6_12" x1="1" y1="347.169" x2="1914" y2="347.169" gradientUnits="userSpaceOnUse">
            <stop stop-color="#4EC1AF"/>
            <stop offset="1" stop-color="#079BEE"/>
        </linearGradient>
        <linearGradient id="paint3_linear_6_12" x1="1" y1="327.169" x2="1914" y2="327.169" gradientUnits="userSpaceOnUse">
            <stop stop-color="#4EC1AF"/>
            <stop offset="1" stop-color="#079BEE"/>
        </linearGradient>
        <linearGradient id="paint4_linear_6_12" x1="1" y1="307.169" x2="1914" y2="307.169" gradientUnits="userSpaceOnUse">
            <stop stop-color="#4EC1AF"/>
            <stop offset="1" stop-color="#079BEE"/>
        </linearGradient>
        <linearGradient id="paint5_linear_6_12" x1="1" y1="287.169" x2="1914" y2="287.169" gradientUnits="userSpaceOnUse">
            <stop stop-color="#4EC1AF"/>
            <stop offset="1" stop-color="#079BEE"/>
        </linearGradient>
        <linearGradient id="paint6_linear_6_12" x1="1" y1="267.169" x2="1914" y2="267.169" gradientUnits="userSpaceOnUse">
            <stop stop-color="#4EC1AF"/>
            <stop offset="1" stop-color="#079BEE"/>
        </linearGradient>
        <linearGradient id="paint7_linear_6_12" x1="1" y1="247.169" x2="1914" y2="247.169" gradientUnits="userSpaceOnUse">
            <stop stop-color="#4EC1AF"/>
            <stop offset="1" stop-color="#079BEE"/>
        </linearGradient>
        <linearGradient id="paint8_linear_6_12" x1="1" y1="227.169" x2="1914" y2="227.169" gradientUnits="userSpaceOnUse">
            <stop stop-color="#4EC1AF"/>
            <stop offset="1" stop-color="#079BEE"/>
        </linearGradient>
        <linearGradient id="paint9_linear_6_12" x1="1" y1="207.169" x2="1914" y2="207.169" gradientUnits="userSpaceOnUse">
            <stop stop-color="#4EC1AF"/>
            <stop offset="1" stop-color="#079BEE"/>
        </linearGradient>
        <linearGradient id="paint10_linear_6_12" x1="1" y1="187.169" x2="1914" y2="187.169" gradientUnits="userSpaceOnUse">
            <stop stop-color="#4EC1AF"/>
            <stop offset="1" stop-color="#079BEE"/>
        </linearGradient>
    </defs>
</svg>
